<?xml version="1.0" encoding="utf-8"?>
<!-- Generator: $$$/GeneralStr/196=Adobe Illustrator 27.6.0, SVG Export Plug-In . SVG Version: 6.00 Build 0)  -->
<svg version="1.1" id="Calque_1" xmlns="http://www.w3.org/2000/svg" xmlns:xlink="http://www.w3.org/1999/xlink" x="0px" y="0px"
	 viewBox="0 0 209 355" style="enable-background:new 0 0 209 355;" xml:space="preserve">
<style type="text/css">
	.st0{clip-path:url(#SVGID_00000067947002840355906750000006380878655100712090_);fill:#61BDC6;}
	.st1{clip-path:url(#SVGID_00000067947002840355906750000006380878655100712090_);fill:#162E36;}
</style>
<g>
	<defs>
		<rect id="SVGID_1_" width="209" height="355"/>
	</defs>
	<clipPath id="SVGID_00000053540885093813203950000017488809201668306048_">
		<use xlink:href="#SVGID_1_"  style="overflow:visible;"/>
	</clipPath>
	
		<image style="overflow:visible;clip-path:url(#SVGID_00000053540885093813203950000017488809201668306048_);" width="209" height="355" xlink:href="background-pods-blog.png" >
	</image>
	
		<rect x="-1.1" style="clip-path:url(#SVGID_00000053540885093813203950000017488809201668306048_);fill:#61BDC6;" width="210.1" height="355"/>
	<path style="clip-path:url(#SVGID_00000053540885093813203950000017488809201668306048_);fill:#162E36;" d="M-237.5,175
		c35.7,36.7,71.6,70.7,104.8,109.6c12.4,14.5,16.1,31.2-6.9,35.1c-18.3,3.1-39.8,6.1-53.3,20.1c-40.1,41.3,26,122.7,74.4,93.3
		c17.3-10.6,22.5-29.8,24.8-48.6c1.4-11.7,4.3-26.6,18.1-29.5c14.2-2.9,25.4,10.8,34.3,19.7c19.9,20.2,62.7,64.5,83.8,86.4
		c6.7,7,17.9,7.2,25,0.3C97.4,431.9,170.5,360,170.9,359.8c4.9-5,4.7-16.2,0.9-21.3c-4.7-6.1-13.9-7.6-21.1-9.2
		c-9.9-2-20.2-3.5-28.8-9c-33.3-20.8-31.7-78.8,0.2-99.7c22.1-14.4,49-10.9,66.6,8.6c8.7,9.6,11.8,21.2,13.6,33.8
		c1.4,10.2,1.5,31.3,16,32.2c17.7,1,21.2-1.6,31.9-11.1c8.3-7.4,67.6-65.1,94.1-91c7-6.8,7-18,0-24.9l-105-102.6
		c-3.8-3.7-9-5.7-14.2-4.9c-5.2,0.8-11.2,4.5-12.6,15.9c-2.5,19.7-1.8,38.1-18,52.4c-19.5,17.1-49.5,17.7-71,4.1
		c-22.2-14.3-38-46-26.4-72.1c10.3-23.1,38.9-30.7,62.1-30.4c14.1,0.1,33.7-16.3,13.6-36.7C157.2-22,100.4-80.2,75-106.2
		c-6.8-7-18-7.1-24.9-0.2C21.2-77.9-47.7-10.2-54-6.7C-86.1,10.8-88.8-41-99.3-57.8c-10.2-16.5-27-29.5-47.3-28.3
		c-30.1,1.8-59.1,26.6-61.1,57.4c-2.1,33.4,29.3,55.1,60.5,57.2c4.8,0.4,20.8-1.9,24.6,2.3c12.1,12.9,8.2,22.8-3.5,34.8
		C-147.5,87.2-237.5,175-237.5,175z"/>
</g>
</svg>
