<?xml version="1.0" encoding="utf-8"?>
<!-- Generator: $$$/GeneralStr/196=Adobe Illustrator 27.6.0, SVG Export Plug-In . SVG Version: 6.00 Build 0)  -->
<svg version="1.1" id="Calque_1" xmlns="http://www.w3.org/2000/svg" xmlns:xlink="http://www.w3.org/1999/xlink" x="0px" y="0px"
	 viewBox="0 0 343 232" style="enable-background:new 0 0 343 232;" xml:space="preserve">
<style type="text/css">
	.st0{clip-path:url(#SVGID_00000076586337636181444400000006009393850112706190_);fill:#61BDC6;}
	.st1{clip-path:url(#SVGID_00000076586337636181444400000006009393850112706190_);fill:#162E36;}
</style>
<image style="overflow:visible;" width="343" height="232" xlink:href="background-pods-blog-mobile.png" >
</image>
<g>
	<defs>
		<rect id="SVGID_1_" width="343" height="232"/>
	</defs>
	<clipPath id="SVGID_00000155130519606617458410000002133054128968160434_">
		<use xlink:href="#SVGID_1_"  style="overflow:visible;"/>
	</clipPath>
	<g style="clip-path:url(#SVGID_00000155130519606617458410000002133054128968160434_);">
		
			<image style="overflow:visible;" width="209" height="355" xlink:href="background-pods-blog.png"  transform="matrix(1 0 0 1 117.576 -61.5)">
		</image>
	</g>
	
		<rect x="-48.5" y="-23.5" style="clip-path:url(#SVGID_00000155130519606617458410000002133054128968160434_);fill:#61BDC6;" width="440" height="355"/>
	<path style="clip-path:url(#SVGID_00000155130519606617458410000002133054128968160434_);fill:#162E36;" d="M-61.2,96.9
		c30.5,31.4,2.8,58.9,31.2,92.1c10.6,12.4,9.7,34.7-10,38c-15.7,2.7,28.4-1.2,16.8,10.8C-57.5,273.1-1,342.6,40.4,317.5
		c14.8-9,19.2-25.5,21.2-41.6c1.2-10,3.6-22.8,15.5-25.2c12.2-2.5,21.7,9.2,29.3,16.9c17,17.3,53.6,55.1,71.6,73.8
		c5.8,6,15.3,6.1,21.3,0.2c25.7-25.3,88.2-86.7,88.5-86.9c4.2-4.3,4.1-13.9,0.7-18.2c-4.1-5.2-11.9-6.5-18-7.8
		c-8.4-1.7-17.3-3-24.7-7.7c-28.5-17.8-27.1-67.4,0.2-85.2c18.9-12.3,41.9-9.3,56.9,7.3c7.5,8.2,10.1,18.2,11.6,28.9
		c1.2,8.7,1.3,26.8,13.7,27.5c15.1,0.9,18.1-1.4,27.3-9.5c7.1-6.3,57.7-55.7,80.5-77.8c6-5.8,6-15.4,0-21.3L346.3,3.3
		c-3.2-3.1-7.7-4.8-12.2-4.2c-4.5,0.6-9.6,3.9-10.8,13.6c-2.1,16.9-1.5,32.6-15.4,44.8c-16.6,14.6-42.3,15.2-60.7,3.5
		c-19-12.2-32.4-39.3-22.5-61.6c8.8-19.8,33.3-26.2,53-26c12.1,0.1,28.8-14,11.6-31.4c-13.2-13.4-61.8-63.2-83.5-85.4
		c-5.8-6-15.4-6.1-21.3-0.2c-24.7,24.4-83.5,82.2-89,85.2c-27.4,14.9-29.8-29.3-38.7-43.6c-8.7-14.1-23.1-25.3-40.4-24.2
		c-25.7,1.5-50.5,22.8-52.2,49.1C-37.5-48.7-10.7-30.1,16-28.3c4.1,0.3,17.8-1.6,21,1.9C47.4-15.3-2-21.2-12-11
		C-30.3,7.5-61.2,96.9-61.2,96.9z"/>
</g>
</svg>
