<svg width="24" height="24" viewBox="0 0 24 24" fill="none" xmlns="http://www.w3.org/2000/svg">
<g id="bell">
<path id="Vector" d="M18.001 8.4C18.001 6.70261 17.3688 5.07475 16.2436 3.87452C15.1184 2.67428 13.5923 2 12.001 2C10.4097 2 8.88355 2.67428 7.75834 3.87452C6.63312 5.07475 6.00098 6.70261 6.00098 8.4C6.00098 15.8667 3.00098 18 3.00098 18H21.001C21.001 18 18.001 15.8667 18.001 8.4Z" fill="#292929" stroke="#292929" stroke-width="1.5" stroke-linecap="round" stroke-linejoin="round"/>
<g id="Vector_2">
<path d="M13.7299 21C13.5541 21.3031 13.3017 21.5547 12.9981 21.7295C12.6945 21.9044 12.3502 21.9965 11.9999 21.9965C11.6495 21.9965 11.3053 21.9044 11.0016 21.7295C10.698 21.5547 10.4457 21.3031 10.2699 21" fill="#292929"/>
<path d="M13.7299 21C13.5541 21.3031 13.3017 21.5547 12.9981 21.7295C12.6945 21.9044 12.3502 21.9965 11.9999 21.9965C11.6495 21.9965 11.3053 21.9044 11.0016 21.7295C10.698 21.5547 10.4457 21.3031 10.2699 21" stroke="#292929" stroke-width="1.5" stroke-linecap="round" stroke-linejoin="round"/>
</g>
</g>
</svg>
