<svg width="16" height="16" viewBox="0 0 16 16" fill="none" xmlns="http://www.w3.org/2000/svg">
<g id="bell">
<path id="Vector" d="M11.7999 5.72032C11.7999 4.64531 11.3996 3.61433 10.6869 2.85419C9.97429 2.09404 9.00775 1.66699 7.99993 1.66699C6.9921 1.66699 6.02556 2.09404 5.31292 2.85419C4.60028 3.61433 4.19993 4.64531 4.19993 5.72032C4.19993 10.4492 2.29993 11.8003 2.29993 11.8003L13.6999 11.8003C13.6999 11.8003 11.7999 10.4492 11.7999 5.72032Z" fill="#292929" stroke="#292929" stroke-width="0.844444" stroke-linecap="round" stroke-linejoin="round"/>
<g id="Vector_2">
<path d="M9.09563 13.7002C8.98428 13.8921 8.82446 14.0515 8.63217 14.1622C8.43988 14.273 8.22187 14.3313 7.99996 14.3313C7.77806 14.3313 7.56004 14.273 7.36775 14.1622C7.17546 14.0515 7.01564 13.8921 6.9043 13.7002" fill="#292929"/>
<path d="M9.09563 13.7002C8.98428 13.8921 8.82446 14.0515 8.63217 14.1622C8.43988 14.273 8.22187 14.3313 7.99996 14.3313C7.77806 14.3313 7.56004 14.273 7.36775 14.1622C7.17546 14.0515 7.01564 13.8921 6.9043 13.7002" stroke="#292929" stroke-width="0.844444" stroke-linecap="round" stroke-linejoin="round"/>
</g>
</g>
</svg>
