<svg width="32" height="32" viewBox="0 0 32 32" fill="none" xmlns="http://www.w3.org/2000/svg">
<g id="camera">
<path id="Vector" d="M2.6665 25.3333V12C2.6665 10.5272 3.86041 9.33333 5.33317 9.33333H5.99984C6.83919 9.33333 7.62956 8.93815 8.13317 8.26667L11.0932 4.32C11.2443 4.11856 11.4814 4 11.7332 4H20.2665C20.5183 4 20.7554 4.11856 20.9065 4.32L23.8665 8.26667C24.3701 8.93815 25.1605 9.33333 25.9998 9.33333H26.6665C28.1393 9.33333 29.3332 10.5272 29.3332 12V25.3333C29.3332 26.8061 28.1393 28 26.6665 28H5.33317C3.86041 28 2.6665 26.8061 2.6665 25.3333Z" stroke="#FF780F" stroke-width="1.5" stroke-linecap="round" stroke-linejoin="round"/>
<path id="Vector_2" d="M15.9998 22.6667C18.9454 22.6667 21.3332 20.2789 21.3332 17.3333C21.3332 14.3878 18.9454 12 15.9998 12C13.0543 12 10.6665 14.3878 10.6665 17.3333C10.6665 20.2789 13.0543 22.6667 15.9998 22.6667Z" stroke="#FF780F" stroke-width="1.5" stroke-linecap="round" stroke-linejoin="round"/>
</g>
</svg>
