<svg width="38" height="38" viewBox="0 0 38 38" fill="none" xmlns="http://www.w3.org/2000/svg">
<g id="camera">
<path id="Vector" d="M3.1665 31.25V13.0833C3.1665 11.9788 4.06193 11.0833 5.1665 11.0833H7.70817C8.33769 11.0833 8.93046 10.7869 9.30817 10.2833L13.2782 4.99C13.3915 4.83892 13.5693 4.75 13.7582 4.75H24.2415C24.4304 4.75 24.6082 4.83892 24.7215 4.99L28.6915 10.2833C29.0692 10.7869 29.662 11.0833 30.2915 11.0833H32.8332C33.9377 11.0833 34.8332 11.9788 34.8332 13.0833V31.25C34.8332 32.3546 33.9377 33.25 32.8332 33.25H5.1665C4.06193 33.25 3.1665 32.3546 3.1665 31.25Z" stroke="white" stroke-width="2" stroke-linecap="round" stroke-linejoin="round"/>
<path id="Vector_2" d="M18.9998 26.9167C22.4976 26.9167 25.3332 24.0811 25.3332 20.5833C25.3332 17.0855 22.4976 14.25 18.9998 14.25C15.502 14.25 12.6665 17.0855 12.6665 20.5833C12.6665 24.0811 15.502 26.9167 18.9998 26.9167Z" stroke="white" stroke-width="2" stroke-linecap="round" stroke-linejoin="round"/>
</g>
</svg>
