<svg width="33" height="32" viewBox="0 0 33 32" fill="none" xmlns="http://www.w3.org/2000/svg">
<g id="card-security">
<path id="Vector" d="M29.6667 12V9.33335C29.6667 7.8606 28.4728 6.66669 27 6.66669H5.66666C4.1939 6.66669 3 7.86059 3 9.33335V22.6667C3 24.1394 4.19391 25.3334 5.66667 25.3334H16.3333M29.6667 12H8.33333M29.6667 12V14.6667" stroke="white" stroke-width="2" stroke-linecap="round" stroke-linejoin="round"/>
<path id="Vector_2" d="M25.6571 18.8334L29.0642 19.6987C29.419 19.7888 29.669 20.1111 29.6581 20.4769C29.4292 28.1546 25.0007 29.3334 25.0007 29.3334C25.0007 29.3334 20.5721 28.1546 20.3432 20.4769C20.3323 20.1111 20.5823 19.7888 20.9371 19.6987L24.3442 18.8334C24.775 18.724 25.2263 18.724 25.6571 18.8334Z" stroke="#9E360E" stroke-width="2" stroke-linecap="round" stroke-linejoin="round"/>
</g>
</svg>
