<svg width="18" height="18" viewBox="0 0 18 18" fill="none" xmlns="http://www.w3.org/2000/svg">
<g id="community">
<path id="Vector" d="M5.25 13.5V12.75C5.25 10.6789 6.92893 9 9 9V9C11.0711 9 12.75 10.6789 12.75 12.75V13.5" stroke="#292929" stroke-linecap="round" stroke-linejoin="round"/>
<path id="Vector_2" d="M0.75 13.5V12.75C0.75 11.5074 1.75736 10.5 3 10.5V10.5" stroke="#292929" stroke-linecap="round" stroke-linejoin="round"/>
<path id="Vector_3" d="M17.25 13.5V12.75C17.25 11.5074 16.2426 10.5 15 10.5V10.5" stroke="#292929" stroke-linecap="round" stroke-linejoin="round"/>
<path id="Vector_4" d="M9 9C10.2426 9 11.25 7.99264 11.25 6.75C11.25 5.50736 10.2426 4.5 9 4.5C7.75736 4.5 6.75 5.50736 6.75 6.75C6.75 7.99264 7.75736 9 9 9Z" stroke="#292929" stroke-linecap="round" stroke-linejoin="round"/>
<path id="Vector_5" d="M3 10.5C3.82843 10.5 4.5 9.82843 4.5 9C4.5 8.17157 3.82843 7.5 3 7.5C2.17157 7.5 1.5 8.17157 1.5 9C1.5 9.82843 2.17157 10.5 3 10.5Z" stroke="#292929" stroke-linecap="round" stroke-linejoin="round"/>
<path id="Vector_6" d="M15 10.5C15.8284 10.5 16.5 9.82843 16.5 9C16.5 8.17157 15.8284 7.5 15 7.5C14.1716 7.5 13.5 8.17157 13.5 9C13.5 9.82843 14.1716 10.5 15 10.5Z" stroke="#292929" stroke-linecap="round" stroke-linejoin="round"/>
</g>
</svg>
