<svg width="20" height="21" viewBox="0 0 20 21" fill="none" xmlns="http://www.w3.org/2000/svg">
<g id="delivery-truck">
<path id="Vector" d="M6.66667 16.6499C7.58714 16.6499 8.33333 15.9037 8.33333 14.9832C8.33333 14.0627 7.58714 13.3165 6.66667 13.3165C5.74619 13.3165 5 14.0627 5 14.9832C5 15.9037 5.74619 16.6499 6.66667 16.6499Z" stroke="#359AA5" stroke-miterlimit="1.5" stroke-linecap="round" stroke-linejoin="round"/>
<path id="Vector_2" d="M15.0002 16.6499C15.9206 16.6499 16.6668 15.9037 16.6668 14.9832C16.6668 14.0627 15.9206 13.3165 15.0002 13.3165C14.0797 13.3165 13.3335 14.0627 13.3335 14.9832C13.3335 15.9037 14.0797 16.6499 15.0002 16.6499Z" stroke="#359AA5" stroke-miterlimit="1.5" stroke-linecap="round" stroke-linejoin="round"/>
<path id="Vector_3" d="M8.37516 14.9832H12.5002V6.31653C12.5002 6.04039 12.2763 5.81653 12.0002 5.81653H0.833496" stroke="#359AA5" stroke-linecap="round"/>
<path id="Vector_4" d="M4.70833 14.9832H3C2.72386 14.9832 2.5 14.7594 2.5 14.4832V10.3999" stroke="#359AA5" stroke-linecap="round"/>
<path id="Vector_5" d="M1.6665 8.31653L4.99984 8.31653" stroke="#359AA5" stroke-linecap="round" stroke-linejoin="round"/>
<path id="Vector_6" d="M12.5 8.31653H17.1751C17.3727 8.31653 17.5517 8.4329 17.632 8.61346L19.1236 11.9696C19.152 12.0335 19.1667 12.1027 19.1667 12.1726V14.4832C19.1667 14.7593 18.9428 14.9832 18.6667 14.9832H17.0833" stroke="#359AA5" stroke-linecap="round"/>
<path id="Vector_7" d="M12.5 14.9832H13.3333" stroke="#359AA5" stroke-linecap="round"/>
</g>
</svg>
