<svg width="42" height="42" viewBox="0 0 42 42" fill="none" xmlns="http://www.w3.org/2000/svg">
<g id="delivery-truck">
<path id="Vector" d="M14 33.25C15.933 33.25 17.5 31.683 17.5 29.75C17.5 27.817 15.933 26.25 14 26.25C12.067 26.25 10.5 27.817 10.5 29.75C10.5 31.683 12.067 33.25 14 33.25Z" stroke="#FF780F" stroke-width="1.3125" stroke-miterlimit="1.5" stroke-linecap="round" stroke-linejoin="round"/>
<path id="Vector_2" d="M31.5 33.25C33.433 33.25 35 31.683 35 29.75C35 27.817 33.433 26.25 31.5 26.25C29.567 26.25 28 27.817 28 29.75C28 31.683 29.567 33.25 31.5 33.25Z" stroke="#FF780F" stroke-width="1.3125" stroke-miterlimit="1.5" stroke-linecap="round" stroke-linejoin="round"/>
<path id="Vector_3" d="M17.5875 29.75H26.25V11.025C26.25 10.735 26.0149 10.5 25.725 10.5H1.75" stroke="#FF780F" stroke-width="1.3125" stroke-linecap="round"/>
<path id="Vector_4" d="M9.8875 29.75H5.775C5.48505 29.75 5.25 29.515 5.25 29.225V20.125" stroke="#FF780F" stroke-width="1.3125" stroke-linecap="round"/>
<path id="Vector_5" d="M3.5 15.75L10.5 15.75" stroke="#FF780F" stroke-width="1.3125" stroke-linecap="round" stroke-linejoin="round"/>
<path id="Vector_6" d="M26.25 15.75H36.4088C36.6163 15.75 36.8043 15.8722 36.8886 16.0618L40.2048 23.5232C40.2346 23.5903 40.25 23.663 40.25 23.7364V29.225C40.25 29.5149 40.0149 29.75 39.725 29.75H35.875" stroke="#FF780F" stroke-width="1.3125" stroke-linecap="round"/>
<path id="Vector_7" d="M26.25 29.75H28" stroke="#FF780F" stroke-width="1.3125" stroke-linecap="round"/>
</g>
</svg>
