<?xml version="1.0" encoding="utf-8"?>
<!-- Generator: $$$/GeneralStr/196=Adobe Illustrator 27.6.0, SVG Export Plug-In . SVG Version: 6.00 Build 0)  -->
<svg version="1.1" id="Calque_1" xmlns="http://www.w3.org/2000/svg" xmlns:xlink="http://www.w3.org/1999/xlink" x="0px" y="0px"
	 viewBox="0 0 24 24" style="enable-background:new 0 0 24 24;" xml:space="preserve">
<style type="text/css">
	.st0{fill:none;stroke:#FF9636;stroke-width:1.5;stroke-linecap:round;stroke-linejoin:round;stroke-miterlimit:1.5;}
	.st1{fill:none;stroke:#FF9636;stroke-width:1.5;stroke-linecap:round;}
	.st2{fill:none;stroke:#FF9636;stroke-width:1.5;stroke-linecap:round;stroke-linejoin:round;}
</style>
<g id="delivery-truck">
	<path id="Vector" class="st0" d="M8,21c1.1,0,2-0.9,2-2c0-1.1-0.9-2-2-2s-2,0.9-2,2C6,20.1,6.9,21,8,21z"/>
	<path id="Vector_2" class="st0" d="M18,21c1.1,0,2-0.9,2-2c0-1.1-0.9-2-2-2s-2,0.9-2,2C16,20.1,16.9,21,18,21z"/>
	<path id="Vector_3" class="st1" d="M10.1,19H15V8.6C15,8.3,14.7,8,14.4,8H1"/>
	<path id="Vector_4" class="st1" d="M5.7,19H3.6C3.3,19,3,18.7,3,18.4v-4.9"/>
	<path id="Vector_5" class="st2" d="M2,11h4"/>
	<path id="Vector_6" class="st1" d="M15,11h5.6c0.2,0,0.5,0.1,0.5,0.4l1.8,4c0,0.1,0.1,0.2,0.1,0.2v2.8c0,0.3-0.3,0.6-0.6,0.6h-1.9"
		/>
	<path id="Vector_7" class="st1" d="M15,19h1"/>
</g>
</svg>
