<?xml version="1.0" encoding="utf-8"?>
<!-- Generator: $$$/GeneralStr/196=Adobe Illustrator 27.6.0, SVG Export Plug-In . SVG Version: 6.00 Build 0)  -->
<svg version="1.1" id="Calque_1" xmlns="http://www.w3.org/2000/svg" xmlns:xlink="http://www.w3.org/1999/xlink" x="0px" y="0px"
	 viewBox="0 0 24 24" style="enable-background:new 0 0 24 24;" xml:space="preserve">
<style type="text/css">
	.st0{fill:none;stroke:#FF9636;stroke-width:1.5;stroke-linecap:round;stroke-linejoin:round;}
	.st1{fill:#FF9636;stroke:#FF9636;stroke-miterlimit:10;}
</style>
<g id="emoji">
	<path id="Vector" class="st0" d="M12,22C6.5,22,2,17.5,2,12C2,6.5,6.5,2,12,2c5.5,0,10,4.5,10,10C22,17.5,17.5,22,12,22z"/>
	<path id="Vector_2" class="st0" d="M16.5,14.5c0,0-1.5,2-4.5,2s-4.5-2-4.5-2"/>
	<path id="Vector_3" class="st1" d="M15.5,9C15.2,9,15,8.8,15,8.5S15.2,8,15.5,8S16,8.2,16,8.5S15.8,9,15.5,9z"/>
	<path id="Vector_4" class="st1" d="M8.5,9C8.2,9,8,8.8,8,8.5S8.2,8,8.5,8S9,8.2,9,8.5S8.8,9,8.5,9z"/>
</g>
</svg>
