<?xml version="1.0" encoding="utf-8"?>
<!-- Generator: $$$/GeneralStr/196=Adobe Illustrator 27.6.0, SVG Export Plug-In . SVG Version: 6.00 Build 0)  -->
<svg version="1.1" id="Calque_1" xmlns="http://www.w3.org/2000/svg" xmlns:xlink="http://www.w3.org/1999/xlink" x="0px" y="0px"
	 viewBox="0 0 1120 374" style="enable-background:new 0 0 1120 374;" xml:space="preserve">
<style type="text/css">
	.st0{fill:none;stroke:#359AA5;stroke-dasharray:2,2;}
	.st1{fill:#359AA5;}
</style>
<path class="st0" d="M160.9,346.7c-0.5,0.4-3.5,1.1-3.9,1.6l0.4,0.3c-0.2,0.2-0.3,0.5-0.5,0.7c-0.2,0.3-0.3,0.6-0.4,0.9l-0.5-0.2
	c-0.2,0.7-0.3,1.4-0.3,2.1l0.5,0c0,0.7,0.2,1.3,0.4,1.9l-0.5,0.2c0.3,0.7,0.6,1.3,1,1.9l0.4-0.3c0.4,0.5,0.8,1.1,1.4,1.5l-0.3,0.4
	c0.5,0.5,1.1,0.9,1.7,1.3l0.3-0.4c0.6,0.4,1.2,0.7,1.8,0.9l-0.2,0.5c0.7,0.2,1.4,0.4,2.1,0.5l0-0.5c0.7,0.1,1.3,0,2-0.1l0.1,0.5
	c0.7-0.2,1.3-0.5,1.9-0.9l-0.3-0.4c0.3-0.2,0.5-0.4,0.7-0.7c0.2-0.2,0.4-0.4,0.5-0.7l0.4,0.3c0.4-0.5,0.6-1.1,0.8-1.7l-0.5-0.1
	c0.2-0.6,0.2-1.2,0.3-1.8l0.5,0c0-0.6,0-1.3-0.1-1.9l-0.5,0c0-0.3-0.1-0.6-0.1-0.9v0c-0.1-0.4-0.1-0.8-0.1-1.3l0.5,0
	c0-0.9,0-1.7,0.5-2.4l-0.4-0.3c0.3-0.4,0.6-0.7,1.1-1c0.5-0.3,1.1-0.4,1.6-0.3l0,0.5c0.9,0,1.8,0.5,2.6,0.9l0.3-0.4
	c0.3,0.1,0.5,0.3,0.7,0.5c0.2,0.1,0.3,0.2,0.4,0.3c0.3,0.2,0.6,0.3,0.9,0.5L178,349c0.5,0.3,1.1,0.7,1.7,1l0.3-0.4
	c0.5,0.3,1.1,0.7,1.7,1l-0.3,0.4c0.6,0.3,1.1,0.7,1.7,1l0.3-0.4c0.6,0.3,1.1,0.7,1.7,1l-0.3,0.4c0.6,0.4,1.2,0.7,1.7,1.1l0.3-0.4
	c0.6,0.4,1.2,0.7,1.7,1.1l-0.3,0.4c0.6,0.4,1.2,0.7,1.7,1.1l0.3-0.4c0.3,0.2,0.6,0.4,0.9,0.5c0.2,0.1,0.4,0.2,0.7,0.2l-0.1,0.5
	c0.6,0.1,1.2-0.1,1.7-0.4l-0.3-0.4c0.2-0.1,0.3-0.3,0.5-0.5l0.5-0.8l0.4,0.3c0.3-0.5,0.6-1.1,1-1.7l-0.4-0.3l1-1.7l0.4,0.3
	c0.2-0.4,0.4-0.7,0.6-1.1c0.1-0.2,0.2-0.4,0.3-0.6l-0.4-0.3l1-1.7l0.4,0.3c0.3-0.6,0.7-1.1,1-1.7l-0.4-0.3l1-1.7l0.4,0.3
	c0.3-0.6,0.7-1.2,1-1.7l-0.4-0.3l1-1.7l0.4,0.3c0.4-0.7,0.7-1.3,1-1.7l-0.4-0.3c0.2-0.3,0.3-0.5,0.4-0.6c0-0.1,0.1-0.1,0.1-0.2l0,0
	l0,0c0.1-0.1,0.1-0.3,0.1-0.5l0.5,0c0-0.5-0.1-1-0.4-1.5l-0.4,0.2c-0.1-0.2-0.2-0.4-0.3-0.4c-0.2-0.1-0.3-0.2-0.5-0.3l0.1-0.5
	c-0.5-0.2-1-0.2-1.5-0.2l0,0.5c-0.2,0-0.4,0-0.5,0c-0.1,0-0.1,0-0.2,0c-0.1,0-0.3,0-0.5,0c-0.2,0-0.4,0-0.6,0l0-0.5
	c-0.7,0-1.4,0.1-2,0l-0.1,0.5c-0.4,0-0.7-0.1-1.1-0.2c-0.3-0.1-0.7-0.2-1-0.4l0.2-0.4c-0.6-0.3-1.1-0.7-1.6-1.1l-0.3,0.4
	c-0.5-0.5-0.9-1-1.3-1.6l0.4-0.3c-0.3-0.5-0.6-1.1-0.9-1.7l-0.5,0.2c-0.2-0.6-0.4-1.3-0.5-2l0.5-0.1c-0.1-0.6-0.1-1.3-0.1-1.9
	l-0.5,0c0-0.7,0.1-1.4,0.3-2l0.5,0.1c0.2-0.6,0.4-1.2,0.8-1.8l-0.4-0.3c0.2-0.3,0.4-0.6,0.6-0.8l0,0c0.3-0.3,0.6-0.6,0.9-0.9
	l0.3,0.4c0.7-0.5,1.4-0.9,2.1-1.2l-0.2-0.5c0.8-0.3,1.7-0.4,2.6-0.3l0,0.5c0.8,0,1.6,0.2,2.4,0.6l0.2-0.5c0.4,0.2,0.8,0.4,1.1,0.6
	l0,0c0.4,0.3,0.7,0.5,1,0.8l-0.4,0.4c0.6,0.6,1,1.3,1.4,2l0.4-0.2c0.2,0.4,0.4,0.8,0.5,1.2l0,0c0.1,0.2,0.2,0.4,0.2,0.6l0,0
	c0.1,0.2,0.2,0.4,0.3,0.6l-0.5,0.2c0.3,0.8,0.8,1.7,1.4,2.2l0.3-0.4c0.3,0.2,0.5,0.2,0.9,0.2h0c0.4-0.1,0.8-0.2,1.1-0.3l0.1,0.5
	c0.9-0.3,1.4-0.7,1.9-1.3l-0.4-0.3c0.2-0.3,0.4-0.6,0.6-0.9c0.1-0.2,0.3-0.5,0.6-0.9l0.4,0.3c0.3-0.5,0.7-1.1,1.1-1.9l-0.4-0.3
	c0.3-0.6,0.7-1.2,1.1-1.9l0.4,0.3c0.4-0.6,0.7-1.2,1.1-1.9l-0.4-0.3c0.4-0.6,0.7-1.3,1.1-1.9l0.4,0.3c0.4-0.6,0.7-1.3,1.1-1.9
	l-0.4-0.3c0.4-0.7,0.8-1.3,1.1-1.9l0.4,0.3c0.4-0.7,0.8-1.3,1.1-1.9l-0.4-0.3l0.6-0.9l0,0c0.1-0.2,0.2-0.5,0.2-0.7l0.5,0.1
	c0.1-0.6-0.1-1.3-0.5-1.8l-0.4,0.3c-0.1-0.2-0.3-0.4-0.6-0.5l-0.9-0.5l0.2-0.4l-1.7-1l-0.2,0.4l-1.7-1l0.2-0.4l-1.7-1l-0.2,0.4
	l-1.7-1l0.2-0.4l-1.7-1l-0.2,0.4l-1.7-1l0.2-0.4l-1.7-1l-0.2,0.4l-1.7-1l0.2-0.4l-1.7-1l-0.2,0.4l-0.9-0.5c0,0,0,0,0,0
	c-0.1-0.1-0.2-0.1-0.4-0.2l0.2-0.5c-0.3-0.1-0.7-0.1-1-0.1l0.1,0.5c-0.1,0-0.3,0.1-0.4,0.1c-0.2,0.1-0.3,0.2-0.4,0.3l-0.4-0.3
	c-0.3,0.3-0.5,0.7-0.5,1.3l0.5,0c0,0.2,0,0.4,0,0.6c0,0.3,0.1,0.6,0.1,0.9l-0.5,0.1c0,0.1,0,0.1,0,0.2c0.1,0.6,0.2,1.1,0.2,1.7
	l0.5-0.1c0.1,0.7,0.1,1.3,0,2l-0.5,0c-0.1,0.6-0.2,1.2-0.5,1.8l0.5,0.2c-0.1,0.3-0.3,0.6-0.5,0.9l0,0c-0.2,0.3-0.3,0.5-0.5,0.7
	l-0.4-0.3c-0.4,0.4-0.8,0.8-1.2,1.1l0.3,0.4c-0.5,0.4-1,0.7-1.6,0.9l-0.2-0.5c-0.5,0.2-1.1,0.4-1.6,0.5l0.1,0.5
	c-0.6,0.1-1.2,0.2-1.8,0.2l0-0.5c-0.6,0-1.1-0.1-1.7-0.2l-0.1,0.5c-0.3-0.1-0.6-0.1-0.9-0.2l0,0c-0.3-0.1-0.6-0.2-0.9-0.4l0.2-0.5
	c-0.6-0.3-1.1-0.6-1.6-0.9l-0.3,0.4c-0.5-0.4-1-0.8-1.5-1.3l0.4-0.3c-0.4-0.5-0.8-1-1.1-1.5l-0.4,0.3c-0.3-0.6-0.6-1.2-0.8-1.8
	l0.5-0.1c-0.2-0.6-0.3-1.2-0.3-1.8l-0.5,0c0-0.3,0-0.7,0.1-1l0,0c0.1-0.4,0.2-0.9,0.3-1.3l0.5,0.2c0.3-0.8,0.8-1.4,1.3-2l-0.4-0.3
	c0.6-0.6,1.3-1.1,2-1.6l0.3,0.4c0.7-0.4,1.5-0.8,2.2-1l-0.2-0.5c0.4-0.1,0.8-0.3,1.2-0.4c0.2-0.1,0.4-0.2,0.7-0.3l0.3,0.4
	c0.5-0.3,0.9-0.8,1.2-1.3l-0.4-0.2c0.2-0.4,0.3-0.9,0.2-1.3l0.5-0.1c-0.1-0.5-0.4-1-1-1.4l-0.3,0.4c-0.2-0.2-0.4-0.3-0.6-0.5
	c-0.2-0.1-0.5-0.3-0.8-0.5l0.3-0.4c-0.5-0.3-1-0.6-1.6-1l-0.3,0.4c-0.5-0.3-1-0.6-1.6-1l0.3-0.4c-0.5-0.3-1-0.6-1.6-1l-0.3,0.4
	l-1.6-1l0.3-0.4c-0.5-0.3-1.1-0.6-1.6-1l-0.3,0.4l-1.6-1l0.3-0.4c-0.5-0.3-1.1-0.7-1.6-1l-0.3,0.4l-1.6-1l0.3-0.4
	c-0.6-0.3-1.1-0.7-1.6-1l-0.3,0.4l-0.8-0.5l0,0c-0.2-0.1-0.4-0.2-0.7-0.2l0.1-0.5c-0.6-0.1-1.2,0.1-1.7,0.4l0.3,0.4
	c-0.2,0.1-0.3,0.3-0.5,0.5l0,0c-0.1,0.3-0.3,0.5-0.5,0.8l-0.4-0.2c-0.3,0.5-0.6,1.1-1,1.7l0.4,0.3c-0.3,0.5-0.6,1.1-1,1.7l-0.4-0.3
	c-0.3,0.5-0.6,1.1-1,1.7l0.4,0.3c-0.3,0.6-0.6,1.1-1,1.7l-0.4-0.3c-0.3,0.6-0.7,1.1-1,1.7l0.4,0.3c-0.3,0.6-0.7,1.1-1,1.7l-0.4-0.3
	c-0.3,0.6-0.7,1.1-1,1.7l0.4,0.3c-0.4,0.6-0.7,1.2-1,1.7l-0.4-0.3c-0.4,0.7-0.8,1.2-1,1.6l0.4,0.3c-0.1,0.2-0.3,0.4-0.4,0.5
	c-0.1,0.1-0.2,0.3-0.3,0.3l0,0c-0.3,0.3-0.5,0.5-0.8,0.6l-0.3-0.4c-0.6,0.4-1.2,0.5-1.7,0.3l-0.1,0.5c-0.7-0.2-1.2-0.6-1.7-1.1
	l0.4-0.4c-0.4-0.4-0.8-0.9-1.1-1.4l-0.4,0.3c-0.3-0.5-0.7-1-1-1.4l0-0.1l0.4-0.3c-0.3-0.5-0.7-1.1-1-1.5l-0.4,0.3
	c-0.2-0.3-0.4-0.5-0.5-0.6l0,0c-0.2-0.2-0.5-0.4-0.7-0.6l0.3-0.4c-0.5-0.4-1.1-0.7-1.6-1l-0.2,0.5c-0.6-0.3-1.1-0.5-1.7-0.6l0.1-0.5
	c-0.6-0.1-1.3-0.1-1.9,0l0.1,0.5c-0.3,0-0.6,0.1-0.9,0.2l0,0c-0.3,0.1-0.6,0.2-0.9,0.4l-0.2-0.5c-0.6,0.3-1.2,0.7-1.7,1.1l0.3,0.4
	c-0.5,0.4-0.9,0.9-1.3,1.4l-0.4-0.3c-0.4,0.5-0.8,1.1-1.1,1.7l0.5,0.2c-0.3,0.6-0.5,1.2-0.6,1.8l-0.5-0.1c-0.1,0.7-0.2,1.3-0.2,2
	l0.5,0c0,0.3,0.1,0.6,0.1,0.9c0.1,0.3,0.2,0.6,0.3,0.9l-0.5,0.2c0.2,0.7,0.6,1.3,1,1.8l0.4-0.3c0.4,0.5,0.9,0.9,1.4,1.3l-0.3,0.4
	c0.6,0.4,1.2,0.7,1.9,0.9l0.2-0.5c0.6,0.2,1.3,0.3,1.9,0.4l-0.1,0.5c0.7,0.1,1.4,0.1,2.1,0l0-0.5c0.3,0,0.7-0.1,1-0.1l0,0l0,0
	c0.1,0,0.4-0.1,0.7-0.2l0,0l0.2,0.5c0.5-0.2,1.1-0.3,1.6-0.4l-0.1-0.5c0.2,0,0.4,0,0.6,0c0.2,0,0.4,0.1,0.6,0.2
	c0.5,0.3,0.9,0.6,1.1,1l-0.4,0.3c0.6,0.8,0.6,1.6,0.3,2.6l0.5,0.2c-0.1,0.4-0.4,0.9-0.6,1.3l0,0l0,0c-0.1,0.3-0.3,0.6-0.5,0.9
	L155,312c-0.3,0.5-0.6,1.1-1,1.8l0.4,0.2c-0.3,0.6-0.7,1.2-1,1.8l-0.4-0.3c-0.3,0.6-0.7,1.2-1,1.8l0.4,0.3c-0.3,0.6-0.7,1.2-1,1.8
	l-0.4-0.3c-0.4,0.6-0.7,1.2-1.1,1.8l0.4,0.3c-0.4,0.6-0.7,1.2-1.1,1.8l-0.4-0.3c-0.4,0.6-0.7,1.2-1.1,1.8l0.4,0.3
	c-0.4,0.7-0.7,1.3-1.1,1.8l-0.4-0.3c-0.4,0.7-0.8,1.3-1.1,1.8l0.4,0.3l-0.3,0.5c0.1,0.1,0.3,0.2,0.4,0.3l-0.3,0.4
	c0.6,0.4,1.2,0.7,1.7,1l0.3-0.4c0.6,0.3,1.2,0.7,1.7,1l-0.3,0.4c0.2,0.1,0.3,0.2,0.5,0.3c0.4,0.2,0.8,0.5,1.2,0.7l0.3-0.4
	c0.6,0.3,1.2,0.7,1.7,1l-0.3,0.4c0.6,0.3,1.2,0.7,1.7,1l0.3-0.4c0.6,0.4,1.2,0.7,1.7,1.1l-0.3,0.4c0.6,0.4,1.1,0.7,1.7,1.1l0.3-0.4
	c0.6,0.4,1.1,0.7,1.7,1.1l-0.3,0.4c0.6,0.4,1.1,0.7,1.7,1.1l0.3-0.4c0.3,0.2,0.6,0.4,0.8,0.6L160.9,346.7z"/>
<path class="st0" d="M857.6,222c-0.7,0.5-5,3.1-5.6,3.8l0.5,0.4c-0.2,0.3-0.5,0.7-0.7,1c-0.2,0.4-0.4,0.8-0.5,1.2l-0.7-0.2
	c-0.3,1-0.4,1.9-0.4,2.9l0.7,0c0,0.9,0.2,1.8,0.6,2.7l-0.6,0.2c0.3,0.9,0.8,1.8,1.4,2.6l0.6-0.4c0.5,0.8,1.2,1.5,1.9,2.1l-0.5,0.5
	c0.7,0.7,1.5,1.3,2.4,1.8l0.4-0.6c0.8,0.5,1.7,0.9,2.5,1.2l-0.2,0.6c0.9,0.3,1.9,0.6,2.9,0.6l0.1-0.7c0.9,0.1,1.8,0,2.7-0.2l0.2,0.7
	c0.9-0.2,1.8-0.6,2.7-1.2l-0.4-0.6c0.4-0.3,0.7-0.6,1-0.9c0.3-0.3,0.5-0.6,0.7-0.9l0.6,0.4c0.5-0.7,0.8-1.5,1.1-2.4l-0.7-0.2
	c0.2-0.8,0.3-1.6,0.4-2.4l0.7,0c0-0.9,0-1.7-0.1-2.6l-0.7,0.1c0-0.4-0.1-0.8-0.2-1.3v0c-0.1-0.5-0.2-1.2-0.2-1.8l0.7,0
	c-0.1-1.2,0.1-2.4,0.7-3.3l-0.6-0.4c0.4-0.5,0.9-1,1.5-1.4c0.7-0.4,1.5-0.5,2.2-0.4l0,0.7c1.2,0.1,2.4,0.7,3.5,1.3l0.3-0.6
	c0.3,0.2,0.7,0.4,1,0.6c0.2,0.1,0.4,0.3,0.6,0.4c0.4,0.2,0.8,0.5,1.2,0.7l-0.4,0.6c0.7,0.4,1.5,0.9,2.4,1.4l0.4-0.6
	c0.8,0.5,1.5,0.9,2.4,1.4l-0.4,0.6c0.8,0.5,1.6,1,2.4,1.4l0.4-0.6c0.8,0.5,1.6,1,2.4,1.4l-0.4,0.6c0.8,0.5,1.6,1,2.4,1.4l0.4-0.6
	c0.8,0.5,1.6,1,2.4,1.4l-0.4,0.6c0.8,0.5,1.6,1,2.4,1.4l0.4-0.6c0.4,0.3,0.8,0.5,1.2,0.7c0.3,0.2,0.6,0.3,0.9,0.3l-0.1,0.7
	c0.8,0.1,1.7-0.1,2.4-0.6l-0.4-0.5c0.3-0.2,0.5-0.4,0.7-0.7l0.7-1.2l0.6,0.3c0.4-0.7,0.9-1.5,1.3-2.3l-0.6-0.3l1.3-2.3l0.6,0.3
	c0.3-0.5,0.6-1,0.9-1.5c0.1-0.3,0.3-0.5,0.4-0.8l-0.6-0.3l1.3-2.3l0.6,0.3c0.4-0.8,0.9-1.6,1.3-2.3l-0.6-0.3l1.3-2.3l0.6,0.3
	c0.5-0.8,0.9-1.6,1.3-2.3l-0.6-0.3l1.3-2.3l0.6,0.3c0.5-0.9,1-1.7,1.3-2.3l-0.6-0.3c0.2-0.4,0.4-0.6,0.5-0.8
	c0.1-0.1,0.1-0.2,0.1-0.2l0-0.1l0,0c0.1-0.2,0.2-0.4,0.2-0.7l0.7,0c0-0.7-0.2-1.4-0.5-2l-0.6,0.3c-0.2-0.3-0.3-0.5-0.5-0.6
	c-0.2-0.2-0.5-0.3-0.7-0.4l0.2-0.7c-0.7-0.2-1.4-0.2-2.1-0.2l0,0.7c-0.3,0-0.5,0-0.8,0c-0.1,0-0.2,0-0.3,0c-0.2,0-0.4,0-0.6,0
	c-0.3,0-0.5,0-0.8,0l0-0.7c-0.9,0.1-1.9,0.1-2.8,0l-0.1,0.7c-0.5-0.1-1-0.2-1.5-0.3c-0.5-0.1-0.9-0.3-1.3-0.5l0.3-0.6
	c-0.8-0.4-1.5-0.9-2.2-1.5l-0.5,0.5c-0.7-0.6-1.3-1.4-1.8-2.2l0.6-0.4c-0.5-0.7-0.9-1.6-1.2-2.4l-0.6,0.2c-0.3-0.9-0.6-1.8-0.7-2.7
	l0.7-0.1c-0.1-0.9-0.2-1.8-0.1-2.7l-0.7,0c0.1-1,0.2-1.9,0.5-2.8l0.7,0.2c0.3-0.9,0.6-1.7,1.1-2.4l-0.6-0.4c0.3-0.4,0.5-0.8,0.9-1.2
	l0,0c0.4-0.5,0.8-0.9,1.3-1.2l0.4,0.5c0.9-0.7,1.9-1.3,2.9-1.6l-0.2-0.7c1.2-0.4,2.4-0.5,3.6-0.5l0,0.7c1.1,0.1,2.2,0.3,3.2,0.8
	l0.3-0.6c0.5,0.2,1.1,0.5,1.6,0.9l0,0c0.5,0.4,1,0.7,1.4,1.2l-0.5,0.5c0.8,0.8,1.4,1.8,2,2.8l0.6-0.3c0.3,0.5,0.5,1.1,0.7,1.6l0,0
	c0.1,0.2,0.2,0.5,0.3,0.8l0,0c0.1,0.3,0.2,0.6,0.4,0.9l-0.6,0.3c0.5,1.1,1.1,2.4,2,3l0.4-0.6c0.3,0.2,0.7,0.3,1.2,0.2h0
	c0.6-0.1,1.1-0.2,1.5-0.4l0.2,0.7c1.3-0.4,1.9-0.9,2.6-1.8l-0.5-0.4c0.3-0.3,0.5-0.8,0.9-1.3c0.1-0.2,0.4-0.7,0.8-1.3l0.6,0.4
	c0.4-0.7,0.9-1.6,1.5-2.6l-0.6-0.4c0.5-0.8,1-1.7,1.5-2.6l0.6,0.3c0.5-0.8,1-1.7,1.5-2.6l-0.6-0.3c0.5-0.9,1-1.7,1.5-2.6l0.6,0.3
	c0.5-0.9,1-1.7,1.5-2.6l-0.6-0.3c0.5-0.9,1-1.8,1.5-2.6l0.6,0.3c0.5-0.9,1.1-1.8,1.5-2.6l-0.6-0.3l0.8-1.3l0,0
	c0.2-0.3,0.3-0.6,0.3-0.9l0.7,0.1c0.1-0.9-0.1-1.7-0.7-2.4l-0.5,0.4c-0.2-0.3-0.5-0.5-0.8-0.7l-1.2-0.7l0.3-0.6l-2.3-1.3l-0.3,0.6
	l-2.3-1.3l0.3-0.6l-2.3-1.3l-0.3,0.6l-2.3-1.3l0.3-0.6l-2.3-1.3l-0.3,0.6l-2.3-1.3l0.3-0.6l-2.3-1.3l-0.3,0.6l-2.3-1.3l0.3-0.6
	l-2.3-1.3l-0.3,0.6l-1.2-0.7c0,0,0,0,0,0c-0.2-0.1-0.3-0.2-0.5-0.2l0.2-0.7c-0.5-0.1-0.9-0.2-1.4-0.1l0.1,0.7
	c-0.2,0-0.4,0.1-0.5,0.1c-0.2,0.1-0.4,0.2-0.6,0.4l-0.5-0.5c-0.4,0.4-0.7,1-0.7,1.9l0.7,0c0,0.3,0,0.5,0,0.9
	c0.1,0.4,0.1,0.9,0.2,1.3l-0.7,0.1c0,0.1,0,0.2,0,0.3c0.1,0.8,0.3,1.6,0.3,2.3l0.7-0.1c0.1,0.9,0.1,1.8,0.1,2.8l-0.7-0.1
	c-0.1,0.9-0.3,1.7-0.7,2.5l0.6,0.3c-0.2,0.4-0.4,0.8-0.7,1.3l0,0c-0.2,0.4-0.5,0.7-0.7,1l-0.5-0.4c-0.5,0.6-1.1,1.1-1.7,1.6l0.4,0.6
	c-0.7,0.5-1.4,0.9-2.1,1.2l-0.3-0.6c-0.7,0.3-1.4,0.5-2.2,0.7l0.1,0.7c-0.8,0.2-1.6,0.3-2.4,0.3l0-0.7c-0.8,0-1.5-0.1-2.3-0.2
	l-0.1,0.7c-0.4-0.1-0.8-0.2-1.2-0.3l0,0c-0.4-0.1-0.8-0.3-1.3-0.5l0.3-0.6c-0.8-0.4-1.5-0.8-2.2-1.3l-0.4,0.6
	c-0.7-0.5-1.4-1.1-2-1.8l0.5-0.5c-0.6-0.6-1.1-1.3-1.5-2.1l-0.6,0.3c-0.5-0.8-0.8-1.6-1.1-2.5l0.7-0.2c-0.2-0.8-0.4-1.7-0.4-2.5
	l-0.7,0c0-0.5,0-0.9,0.1-1.4l0,0c0.1-0.6,0.3-1.2,0.5-1.8l0.6,0.2c0.4-1.1,1-2,1.8-2.8l-0.5-0.5c0.8-0.9,1.8-1.6,2.8-2.2l0.4,0.6
	c1-0.6,2-1,3-1.4l-0.2-0.6c0.6-0.2,1.1-0.4,1.7-0.5c0.3-0.1,0.6-0.2,0.9-0.4l0.4,0.6c0.7-0.4,1.3-1,1.6-1.8l-0.6-0.3
	c0.3-0.6,0.4-1.2,0.2-1.8l0.7-0.2c-0.2-0.7-0.6-1.3-1.4-2l-0.4,0.5c-0.3-0.2-0.5-0.4-0.9-0.6c-0.3-0.2-0.7-0.4-1.1-0.7l0.4-0.6
	c-0.6-0.4-1.4-0.8-2.2-1.3l-0.4,0.6c-0.7-0.4-1.4-0.9-2.2-1.3l0.4-0.6c-0.7-0.4-1.4-0.9-2.2-1.3l-0.4,0.6l-2.2-1.3l0.4-0.6
	c-0.7-0.4-1.5-0.9-2.2-1.3l-0.4,0.6l-2.2-1.3l0.4-0.6c-0.8-0.5-1.5-0.9-2.2-1.3l-0.4,0.6l-2.2-1.3l0.4-0.6c-0.8-0.5-1.5-0.9-2.2-1.3
	l-0.4,0.6l-1.1-0.7l0,0c-0.3-0.2-0.6-0.3-0.9-0.3l0.1-0.7c-0.8-0.1-1.7,0.1-2.4,0.6l0.4,0.5c-0.3,0.2-0.5,0.4-0.6,0.7l0,0
	c-0.2,0.4-0.4,0.7-0.7,1.1l-0.6-0.3c-0.4,0.7-0.9,1.5-1.3,2.3l0.6,0.3c-0.4,0.7-0.9,1.5-1.3,2.3l-0.6-0.3c-0.4,0.7-0.9,1.5-1.3,2.3
	l0.6,0.3c-0.4,0.8-0.9,1.5-1.3,2.3l-0.6-0.3c-0.4,0.8-0.9,1.5-1.3,2.3l0.6,0.3c-0.5,0.8-0.9,1.5-1.4,2.3l-0.6-0.4
	c-0.5,0.8-0.9,1.6-1.4,2.3l0.6,0.4c-0.5,0.8-1,1.6-1.4,2.3l-0.6-0.4c-0.6,0.9-1,1.7-1.4,2.3l0.6,0.4c-0.2,0.3-0.4,0.5-0.5,0.7
	c-0.1,0.2-0.3,0.4-0.4,0.5l0,0c-0.4,0.3-0.7,0.6-1.1,0.9l-0.4-0.6c-0.8,0.5-1.6,0.6-2.3,0.4l-0.2,0.7c-0.9-0.2-1.7-0.8-2.4-1.5
	l0.5-0.5c-0.5-0.5-1.1-1.2-1.6-1.9l-0.6,0.4c-0.5-0.7-0.9-1.3-1.3-2l-0.1-0.1l0.6-0.4c-0.5-0.7-0.9-1.5-1.4-2l-0.6,0.4
	c-0.3-0.3-0.5-0.6-0.7-0.8l0,0c-0.3-0.3-0.6-0.6-1-0.8l0.4-0.5c-0.7-0.6-1.5-1-2.2-1.4l-0.3,0.6c-0.8-0.4-1.5-0.6-2.3-0.8l0.1-0.7
	c-0.9-0.2-1.8-0.2-2.6,0l0.1,0.7c-0.4,0.1-0.8,0.2-1.2,0.3l0,0c-0.4,0.1-0.8,0.3-1.2,0.5l-0.3-0.6c-0.8,0.4-1.6,0.9-2.4,1.5l0.4,0.5
	c-0.7,0.6-1.3,1.2-1.9,1.9l-0.5-0.4c-0.6,0.7-1.1,1.5-1.5,2.4l0.6,0.3c-0.4,0.8-0.7,1.6-0.9,2.5l-0.7-0.1c-0.2,0.9-0.3,1.8-0.2,2.8
	l0.7,0c0,0.4,0.1,0.9,0.2,1.3c0.1,0.4,0.2,0.9,0.4,1.3l-0.6,0.2c0.3,0.9,0.8,1.7,1.4,2.5l0.5-0.4c0.6,0.7,1.2,1.3,1.9,1.8l-0.4,0.6
	c0.8,0.5,1.6,0.9,2.5,1.2l0.2-0.7c0.8,0.3,1.7,0.5,2.6,0.6l-0.1,0.7c0.9,0.1,1.9,0.1,2.8,0l-0.1-0.7c0.4,0,0.9-0.1,1.3-0.2l0,0l0,0
	c0.2,0,0.5-0.1,1-0.3l0,0l0.2,0.7c0.7-0.2,1.5-0.5,2.2-0.6l-0.1-0.7c0.3,0,0.5,0,0.8,0c0.3,0,0.5,0.1,0.8,0.3
	c0.7,0.4,1.2,0.9,1.6,1.3l-0.5,0.4c0.8,1,0.9,2.2,0.4,3.5l0.6,0.2c-0.2,0.6-0.5,1.2-0.8,1.8l0,0l0,0c-0.2,0.3-0.4,0.8-0.7,1.2
	l-0.6-0.3c-0.4,0.7-0.9,1.6-1.4,2.5l0.6,0.3c-0.4,0.8-0.9,1.6-1.4,2.5l-0.6-0.3c-0.5,0.8-0.9,1.6-1.4,2.5l0.6,0.3
	c-0.5,0.8-1,1.7-1.4,2.5l-0.6-0.3c-0.5,0.8-1,1.7-1.4,2.5l0.6,0.3c-0.5,0.8-1,1.7-1.4,2.5l-0.6-0.3c-0.5,0.9-1,1.7-1.4,2.5l0.6,0.3
	c-0.5,0.9-1,1.7-1.4,2.5l-0.6-0.3c-0.6,1-1.1,1.9-1.4,2.5l0.6,0.3l-0.4,0.7c0.2,0.1,0.4,0.2,0.6,0.4l-0.4,0.6c0.8,0.5,1.6,1,2.4,1.4
	l0.4-0.6c0.8,0.5,1.6,1,2.4,1.4l-0.4,0.6c0.2,0.1,0.5,0.3,0.7,0.4c0.6,0.3,1.1,0.7,1.7,1l0.4-0.6c0.8,0.5,1.6,1,2.4,1.4l-0.4,0.6
	c0.8,0.5,1.6,1,2.4,1.4l0.4-0.6c0.8,0.5,1.6,1,2.4,1.5l-0.4,0.6c0.8,0.5,1.6,1,2.4,1.5l0.4-0.6c0.8,0.5,1.6,1,2.4,1.5l-0.4,0.6
	c0.8,0.5,1.6,1,2.3,1.6l0.4-0.6c0.4,0.3,0.8,0.5,1.2,0.8L857.6,222z"/>
<path id="Vector_00000125572325246429471440000007563603470730595507_" class="st1" d="M237.4,164.9c2.6,4.7,5.3,9.2,7.7,14.1
	c0.9,1.8,0.8,3.6-1.7,3.4c-1.9-0.2-4.2-0.5-6,0.6c-5.2,3.1-0.7,13.3,5,11.6c2-0.6,3.1-2.4,3.9-4.3c0.5-1.2,1.2-2.6,2.7-2.5
	c1.5,0.1,2.3,1.8,2.9,3c1.5,2.6,4.6,8.3,6.2,11.1c0.5,0.9,1.6,1.2,2.5,0.7c3.9-2.2,13.3-7.6,13.3-7.6c0.6-0.4,0.9-1.5,0.7-2.2
	c-0.3-0.8-1.2-1.2-1.9-1.5c-1-0.5-2-0.9-2.7-1.7c-2.8-3-1.1-8.9,2.8-10.2c2.6-0.9,5.3,0.2,6.5,2.7c0.6,1.2,0.6,2.5,0.5,3.8
	c-0.1,1.1-0.7,3.3,0.7,3.7c1.8,0.6,2.2,0.4,3.6-0.3c1-0.5,8.7-4.8,12.1-6.8c0.9-0.5,1.2-1.7,0.7-2.6l-7.9-13.4
	c-0.3-0.5-0.8-0.8-1.3-0.9c-0.6-0.1-1.3,0.2-1.7,1.3c-0.8,2-1.2,3.9-3.3,4.9c-2.4,1.2-5.5,0.5-7.3-1.5c-1.9-2.1-2.6-5.7-0.7-8.1
	c1.7-2.1,4.8-2.1,7.2-1.4c1.4,0.4,3.9-0.8,2.4-3.4c-1.1-2-5.3-9.5-7.2-12.9c-0.5-0.9-1.6-1.2-2.5-0.7c-3.7,2.1-12.6,7.2-13.3,7.4
	c-3.7,0.9-2.6-4.5-3.2-6.5c-0.6-2-1.9-3.8-4-4.2c-3.1-0.6-6.7,1.1-7.8,4.2c-1.1,3.4,1.5,6.4,4.6,7.5c0.5,0.2,2.2,0.4,2.4,0.9
	c0.9,1.7,0.2,2.6-1.3,3.5C249,158.4,237.4,164.9,237.4,164.9z"/>
<path id="Vector_00000000185587402960901200000007170358192921741467_" class="st1" d="M908.5,349.6c2.4,2.8,4.8,5.4,7,8.3
	c0.8,1.1,1,2.3-0.6,2.5c-1.3,0.2-2.9,0.3-3.9,1.2c-3,2.8,1.4,8.9,4.9,7c1.3-0.7,1.7-2.1,2-3.4c0.1-0.8,0.4-1.9,1.4-2
	c1-0.2,1.8,0.9,2.4,1.6c1.3,1.5,4.2,4.9,5.6,6.5c0.5,0.5,1.3,0.6,1.8,0.1c2.3-2,7.8-6.9,7.8-6.9c0.4-0.3,0.4-1.1,0.1-1.5
	c-0.3-0.5-1-0.6-1.5-0.7c-0.7-0.2-1.4-0.3-2-0.8c-2.3-1.6-1.9-5.8,0.4-7.2c1.6-0.9,3.5-0.6,4.7,0.9c0.6,0.7,0.8,1.6,0.8,2.5
	c0.1,0.7,0,2.3,1,2.4c1.3,0.1,1.5,0,2.3-0.7c0.6-0.5,5.1-4.4,7.1-6.2c0.5-0.5,0.6-1.3,0.1-1.8l-7.1-7.8c-0.3-0.3-0.6-0.4-1-0.4
	c-0.4,0-0.8,0.3-1,1.1c-0.3,1.4-0.3,2.7-1.5,3.7c-1.5,1.1-3.6,1.1-5.1,0c-1.5-1.1-2.5-3.4-1.6-5.3c0.8-1.6,2.9-2,4.5-1.9
	c1,0.1,2.5-1,1.1-2.6c-1-1.2-4.9-5.6-6.6-7.5c-0.5-0.5-1.3-0.6-1.8-0.1c-2.2,1.9-7.3,6.5-7.8,6.7c-2.4,1.1-2.3-2.6-3-3.8
	c-0.7-1.2-1.8-2.2-3.3-2.2c-2.2,0-4.3,1.7-4.6,3.9c-0.3,2.4,1.9,4.1,4.1,4.3c0.3,0,1.5-0.1,1.7,0.3c0.8,1,0.5,1.7-0.4,2.5
	C915.3,343.7,908.5,349.6,908.5,349.6z"/>
</svg>
