<svg width="20" height="21" viewBox="0 0 20 21" fill="none" xmlns="http://www.w3.org/2000/svg">
<g id="gift">
<path id="Vector" d="M16.6668 10.8165V18.6499C16.6668 18.926 16.443 19.1499 16.1668 19.1499H3.8335C3.55735 19.1499 3.3335 18.926 3.3335 18.6499V10.8165" stroke="#359AA5" stroke-linecap="round" stroke-linejoin="round"/>
<path id="Vector_2" d="M17.8332 6.6499H2.1665C1.89036 6.6499 1.6665 6.87376 1.6665 7.1499V10.3166C1.6665 10.5927 1.89036 10.8166 2.1665 10.8166H17.8332C18.1093 10.8166 18.3332 10.5927 18.3332 10.3166V7.1499C18.3332 6.87376 18.1093 6.6499 17.8332 6.6499Z" stroke="#359AA5" stroke-linecap="round" stroke-linejoin="round"/>
<path id="Vector_3" d="M10 19.1499V6.6499" stroke="#359AA5" stroke-linecap="round" stroke-linejoin="round"/>
<path id="Vector_4" d="M9.99984 6.64982H6.24984C5.6973 6.64982 5.1674 6.43033 4.7767 6.03963C4.386 5.64893 4.1665 5.11902 4.1665 4.56649C4.1665 4.01395 4.386 3.48405 4.7767 3.09335C5.1674 2.70265 5.6973 2.48315 6.24984 2.48315C9.1665 2.48315 9.99984 6.64982 9.99984 6.64982Z" stroke="#359AA5" stroke-linecap="round" stroke-linejoin="round"/>
<path id="Vector_5" d="M10 6.64982H13.75C14.3025 6.64982 14.8324 6.43033 15.2231 6.03963C15.6138 5.64893 15.8333 5.11902 15.8333 4.56649C15.8333 4.01395 15.6138 3.48405 15.2231 3.09335C14.8324 2.70265 14.3025 2.48315 13.75 2.48315C10.8333 2.48315 10 6.64982 10 6.64982Z" stroke="#359AA5" stroke-linecap="round" stroke-linejoin="round"/>
</g>
</svg>
