<?xml version="1.0" encoding="UTF-8"?>
<svg id="Calque_2" data-name="Calque 2" xmlns="http://www.w3.org/2000/svg" viewBox="0 0 272.32 243.11">
  <defs>
    <style>
      .cls-1 {
        stroke-dasharray: 0 0 9.97 9.97;
      }

      .cls-1, .cls-2 {
        fill: none;
        stroke: #359aa5;
        stroke-miterlimit: 10;
      }
    </style>
  </defs>
  <g id="Calque_1-2" data-name="Calque 1">
    <g>
      <path class="cls-2" d="M132.69,22.52c1.19,1.16,2.35,2.36,3.47,3.59,1.12-1.23,2.28-2.43,3.47-3.59"/>
      <path class="cls-1" d="M147.21,16.04c13.01-9.76,29.17-15.54,46.69-15.54,43.04,0,77.92,34.89,77.92,77.92,0,4.97-.47,9.84-1.36,14.55-1.89,10.05-5.72,19.42-11.09,27.71-1.86,2.87-3.97,5.56-6.21,8.14l-3.33,3.83-83.44,96.19c-15.91,18.35-44.39,18.35-60.3,0L23.88,134.06l-4.55-5.25c-4.91-5.66-9.1-11.93-12.15-18.77-2.29-5.14-4.03-10.56-5.17-16.21-.78-3.9-1.27-7.9-1.45-11.99C-1.3,38.08,33.81.95,77.61.5c19.62-.19,37.6,6.86,51.4,18.66"/>
    </g>
  </g>
</svg>