<svg width="24" height="24" viewBox="0 0 24 24" fill="none" xmlns="http://www.w3.org/2000/svg">
<g id="heart">
<path id="Path" d="M19.986 12.6455L19.9859 12.6456C19.1668 13.4947 18.3604 14.3511 17.5557 15.2055C15.9456 16.9153 14.3428 18.6174 12.66 20.238C12.2785 20.5988 11.6729 20.585 11.3086 20.2074L4.0136 12.6456C1.99547 10.5536 1.99547 7.17054 4.0136 5.0786C6.04367 2.97428 9.34471 2.97428 11.3748 5.0786L11.6399 5.35344C11.7342 5.45112 11.864 5.50629 11.9998 5.50629C12.1355 5.50629 12.2654 5.45112 12.3596 5.35344L12.6246 5.07875L12.6247 5.07867C13.5998 4.06744 14.9246 3.49988 16.3053 3.49988C17.6861 3.49988 19.0108 4.06739 19.9859 5.07853L19.986 5.07867C20.955 6.08275 21.5 7.44296 21.5 8.86209C21.5 10.2813 20.955 11.6416 19.986 12.6455Z" stroke="#292929" stroke-linejoin="round"/>
</g>
</svg>
