<svg width="37" height="37" viewBox="0 0 37 37" fill="none" xmlns="http://www.w3.org/2000/svg">
<g id="instagram">
<path id="Vector" d="M18.5 24.7168C21.8137 24.7168 24.5 22.0305 24.5 18.7168C24.5 15.4031 21.8137 12.7168 18.5 12.7168C15.1863 12.7168 12.5 15.4031 12.5 18.7168C12.5 22.0305 15.1863 24.7168 18.5 24.7168Z" stroke="white" stroke-width="2.25" stroke-linecap="round" stroke-linejoin="round"/>
<path id="Vector_2" d="M5 24.7168V12.7168C5 8.57466 8.35787 5.2168 12.5 5.2168H24.5C28.6421 5.2168 32 8.57466 32 12.7168V24.7168C32 28.8589 28.6421 32.2168 24.5 32.2168H12.5C8.35787 32.2168 5 28.8589 5 24.7168Z" stroke="white" stroke-width="2.25"/>
<path id="Vector_3" d="M26.75 10.4818L26.765 10.4651" stroke="white" stroke-width="2.25" stroke-linecap="round" stroke-linejoin="round"/>
</g>
</svg>
