<svg width="142" height="44" viewBox="0 0 142 44" fill="none" xmlns="http://www.w3.org/2000/svg">
<g id="logo" clip-path="url(#clip0_1908_28945)">
<path id="Vector" d="M21.108 34.8127H30.517C30.4913 35.0682 30.4031 35.3092 30.2487 35.4698C30.223 35.4954 24.8054 40.8073 22.5818 42.9905C22.0672 43.498 21.2366 43.487 20.7331 42.965C19.171 41.3476 16.0028 38.0728 14.5253 36.576C13.8747 35.9189 13.0441 34.9003 11.9892 35.1193C10.9601 35.3311 10.7469 36.43 10.644 37.2989C10.4786 38.6898 10.0927 40.1137 8.80999 40.8949C5.23013 43.0745 0.327112 37.0579 3.30053 33.9985C4.30392 32.9653 5.88803 32.7426 7.24794 32.5126C8.95701 32.2279 8.68503 30.9975 7.7625 29.9169C5.29629 27.04 2.64263 24.5319 0 21.8157C0 21.8157 6.65987 15.3245 8.24398 13.7182C9.11505 12.8347 9.40909 12.1008 8.50861 11.1443C8.2256 10.8413 7.05314 11.0056 6.68927 10.98C4.38111 10.8267 2.05089 9.22034 2.20893 6.75238C2.35595 4.48156 4.50975 2.64154 6.73705 2.51011C8.2403 2.41884 9.48627 3.37901 10.2397 4.60204C11.0116 5.85062 11.2174 9.67304 13.588 8.38065C14.0585 8.12509 19.16 3.1125 21.2954 1.00962C21.8063 0.505805 22.6369 0.513107 23.1405 1.02787C25.0186 2.94821 29.2306 7.25254 30.3774 8.4135C30.6457 8.68366 30.8148 8.94287 30.914 9.19113H21.1116C20.4574 9.19113 19.9281 9.71685 19.9281 10.3667V33.6444C19.9281 34.2942 20.4574 34.82 21.1116 34.82L21.108 34.8127Z" fill="#FF780F"/>
<g id="Group">
<path id="Vector_2" d="M38.886 15.675C38.3861 14.6235 37.629 13.7911 36.6146 13.1741C36.6036 13.1668 36.5925 13.1595 36.5778 13.1559C35.5671 12.5535 34.288 12.2505 32.737 12.2505H23.0633V31.7678H27.9773V26.0397H32.6157C33.428 26.0397 34.1778 25.9484 34.8614 25.7659C35.3943 25.6235 35.8942 25.4263 36.3536 25.1744C37.4011 24.5976 38.2097 23.7944 38.7794 22.7649C39.3491 21.7353 39.6321 20.5525 39.6321 19.2199C39.6321 17.8874 39.3822 16.7264 38.886 15.675ZM27.981 22.283V16.0108H31.6711C32.6892 16.0108 33.4353 16.2883 33.9131 16.8432C34.2035 17.1791 34.4057 17.599 34.5196 18.1028C34.5931 18.4313 34.6299 18.7928 34.6299 19.1944C34.6299 20.1253 34.3689 20.8737 33.8507 21.436C33.3324 22.0019 32.5532 22.283 31.5168 22.283H27.9773H27.981Z" fill="#162E36"/>
<path id="Vector_3" d="M51.3824 17.4055V27.2262C51.0369 27.5913 50.5996 27.8944 50.0703 28.1353C49.541 28.3763 48.9824 28.5004 48.3906 28.5004C47.5967 28.5004 47.0013 28.3142 46.6044 27.9382C46.2074 27.5658 46.009 26.9743 46.009 26.1639V17.4055H41.0949V26.4377C41.0949 26.9926 41.139 27.5037 41.2272 27.9783C41.4294 29.0772 41.8631 29.9644 42.5283 30.6361C43.4839 31.5963 44.8181 32.0745 46.5272 32.0745C47.6261 32.0745 48.5928 31.9322 49.4271 31.6511C50.2614 31.3663 50.9708 31.0049 51.5625 30.5595L51.7169 31.7715H56.2928V17.4055H51.3824Z" fill="#162E36"/>
<path id="Vector_4" d="M58.7958 31.7715V29.1648L65.4777 21.2864H59.0384V17.4055H71.7002V20.2532L65.169 28.0112H71.9134V31.7679H58.7921L58.7958 31.7715Z" fill="#162E36"/>
<path id="Vector_5" d="M73.8062 31.7715V29.1648L80.4881 21.2864H74.0488V17.4055H86.7106V20.2532L80.1794 28.0112H86.9238V31.7679H73.8026L73.8062 31.7715Z" fill="#162E36"/>
<path id="Vector_6" d="M93.885 32.0746C92.2972 32.0746 91.1579 31.7314 90.4669 31.0451C89.7759 30.3587 89.4304 29.2562 89.4304 27.7411V11.3416H94.3445V27.2519C94.3445 27.7155 94.44 28.0368 94.6348 28.2084C94.8296 28.38 95.1163 28.4676 95.5059 28.4676C96.0535 28.4676 96.5424 28.3982 96.9687 28.2558V31.5599C96.5019 31.7424 96.0388 31.8738 95.5794 31.9541C95.12 32.0345 94.5576 32.0746 93.885 32.0746Z" fill="#162E36"/>
<path id="Vector_7" d="M106.576 32.0746C104.055 32.0746 102.03 31.454 100.505 30.209C98.9792 28.9677 98.2147 27.0912 98.2147 24.5867C98.2147 22.305 98.8432 20.4869 100.108 19.1324C101.368 17.7779 103.261 17.1025 105.782 17.1025C108.08 17.1025 109.862 17.6903 111.123 18.8586C112.383 20.0305 113.016 21.6077 113.016 23.5864V26.1639H102.765C102.989 27.1131 103.511 27.7739 104.338 28.15C105.161 28.5223 106.286 28.7122 107.708 28.7122C108.502 28.7122 109.311 28.6428 110.134 28.5004C110.957 28.358 111.645 28.1792 112.192 27.9565V31.14C111.501 31.4649 110.678 31.7022 109.722 31.8519C108.767 32.0052 107.719 32.0782 106.58 32.0782L106.576 32.0746ZM102.761 23.3455H108.741V22.7102C108.741 22.002 108.528 21.4434 108.102 21.0272C107.675 20.6146 106.951 20.4065 105.937 20.4065C104.757 20.4065 103.934 20.6438 103.467 21.1185C103 21.5931 102.765 22.3378 102.765 23.3455H102.761Z" fill="#162E36"/>
<path id="Vector_8" d="M114.923 31.7715V27.8979H118.823V31.7715H114.923Z" fill="#FF780F"/>
<path id="Vector_9" d="M122.017 31.7716V21.1038H120.094V17.4056H122.017V16.2227C122.017 14.6674 122.465 13.386 123.358 12.3747C124.251 11.3634 125.586 10.8596 127.357 10.8596C128.089 10.8596 128.739 10.9144 129.309 11.0276C129.878 11.1371 130.419 11.2941 130.926 11.4985V14.7733C130.621 14.6711 130.327 14.5908 130.04 14.5324C129.753 14.4703 129.441 14.4411 129.096 14.4411C128.302 14.4411 127.743 14.5871 127.416 14.8792C127.089 15.1712 126.927 15.6532 126.927 16.3176V17.4092H130.496L130.283 21.1075H126.927V31.7752H122.013L122.017 31.7716Z" fill="#162E36"/>
<path id="Vector_10" d="M132.025 31.7716V17.4056H136.693L136.847 18.7381C137.476 18.3548 138.262 18.0043 139.196 17.694C140.129 17.38 141.066 17.1829 142.004 17.1025V20.768C141.474 20.83 140.89 20.925 140.251 21.0564C139.611 21.1878 139.001 21.3448 138.42 21.5273C137.839 21.7099 137.347 21.8997 136.939 22.1042V31.7716H132.025Z" fill="#162E36"/>
</g>
</g>
<defs>
<clipPath id="clip0_1908_28945">
<rect width="142" height="42.7257" fill="white" transform="translate(0 0.637207)"/>
</clipPath>
</defs>
</svg>
