<svg width="133" height="40" viewBox="0 0 133 40" fill="none" xmlns="http://www.w3.org/2000/svg">
<g id="logo" clip-path="url(#clip0_1489_11485)">
<path id="Vector" d="M20.1215 31.7687H28.868C28.844 32.0062 28.762 32.2302 28.6185 32.3796C28.5946 32.4033 23.5586 37.3412 21.4915 39.3706C21.0132 39.8424 20.2411 39.8322 19.773 39.3469C18.3209 37.8435 15.3758 34.7993 14.0024 33.4079C13.3976 32.797 12.6255 31.8501 11.6449 32.0538C10.6883 32.2506 10.4901 33.2721 10.3944 34.0798C10.2407 35.3728 9.88196 36.6964 8.68957 37.4226C5.36181 39.4487 0.804076 33.8558 3.5681 31.0119C4.50083 30.0515 5.97338 29.8444 7.23752 29.6306C8.82623 29.3659 8.57341 28.2222 7.71584 27.2177C5.42331 24.5434 2.95653 22.2119 0.5 19.687C0.5 19.687 6.69086 13.653 8.16341 12.1597C8.97315 11.3384 9.24647 10.6563 8.40941 9.76714C8.14633 9.48547 7.05644 9.63818 6.7182 9.61443C4.57258 9.47189 2.40646 7.97865 2.55337 5.68449C2.69003 3.57359 4.69216 1.86315 6.76261 1.74097C8.16 1.65613 9.31822 2.54868 10.0186 3.68558C10.7361 4.84624 10.9274 8.39947 13.1311 7.19809C13.5685 6.96053 18.3107 2.30094 20.2957 0.346152C20.7706 -0.122182 21.5428 -0.115395 22.0109 0.363121C23.7567 2.14822 27.6721 6.14943 28.7381 7.22863C28.9875 7.47977 29.1447 7.72073 29.2369 7.9515H20.1249C19.5167 7.9515 19.0248 8.4402 19.0248 9.04428V30.6827C19.0248 31.2868 19.5167 31.7755 20.1249 31.7755L20.1215 31.7687Z" fill="#FF780F"/>
<g id="Group">
<path id="Vector_2" d="M36.6475 13.9787C36.1829 13.0013 35.479 12.2276 34.5361 11.654C34.5258 11.6472 34.5156 11.6404 34.5019 11.6371C33.5623 11.0771 32.3734 10.7954 30.9316 10.7954H21.9391V28.9383H26.5071V23.6135H30.8188C31.5739 23.6135 32.2709 23.5287 32.9063 23.359C33.4017 23.2266 33.8664 23.0434 34.2935 22.8092C35.2672 22.273 36.0189 21.5264 36.5484 20.5693C37.078 19.6123 37.3411 18.5128 37.3411 17.274C37.3411 16.0353 37.1088 14.9561 36.6475 13.9787ZM26.5105 20.1214V14.291H29.9407C30.8871 14.291 31.5807 14.5489 32.0249 15.0647C32.2948 15.3769 32.4827 15.7672 32.5886 16.2356C32.6569 16.541 32.6911 16.877 32.6911 17.2503C32.6911 18.1157 32.4485 18.8114 31.9668 19.334C31.485 19.8601 30.7607 20.1214 29.7972 20.1214H26.5071H26.5105Z" fill="white"/>
<path id="Vector_3" d="M48.264 15.5874V24.7165C47.9428 25.0559 47.5362 25.3376 47.0442 25.5616C46.5523 25.7856 46.0329 25.9009 45.4829 25.9009C44.7449 25.9009 44.1914 25.7279 43.8224 25.3783C43.4534 25.0321 43.2689 24.4824 43.2689 23.729V15.5874H38.7009V23.9835C38.7009 24.4993 38.7419 24.9745 38.8239 25.4156C39.0118 26.4372 39.415 27.2618 40.0334 27.8863C40.9217 28.7788 42.1619 29.2234 43.7506 29.2234C44.7722 29.2234 45.6708 29.091 46.4463 28.8297C47.2219 28.565 47.8813 28.229 48.4314 27.815L48.5749 28.9417H52.8285V15.5874H48.264Z" fill="white"/>
<path id="Vector_4" d="M55.1551 28.9417V26.5186L61.3665 19.1949H55.3806V15.5874H67.1508V18.2345L61.0795 25.4462H67.349V28.9383H55.1517L55.1551 28.9417Z" fill="white"/>
<path id="Vector_5" d="M69.1085 28.9417V26.5186L75.3199 19.1949H69.334V15.5874H81.1042V18.2345L75.0329 25.4462H81.3023V28.9383H69.1051L69.1085 28.9417Z" fill="white"/>
<path id="Vector_6" d="M87.7734 29.2234C86.2974 29.2234 85.2382 28.9044 84.5959 28.2664C83.9536 27.6284 83.6324 26.6035 83.6324 25.1951V9.95044H88.2004V24.7403C88.2004 25.1713 88.2893 25.47 88.4703 25.6295C88.6514 25.789 88.9179 25.8704 89.2801 25.8704C89.7891 25.8704 90.2435 25.8059 90.6399 25.6736V28.7449C90.206 28.9146 89.7755 29.0368 89.3484 29.1114C88.9213 29.1861 88.3986 29.2234 87.7734 29.2234Z" fill="white"/>
<path id="Vector_7" d="M99.5708 29.2233C97.2271 29.2233 95.3445 28.6464 93.9266 27.4892C92.5088 26.3353 91.7981 24.5909 91.7981 22.2628C91.7981 20.1417 92.3823 18.4517 93.5576 17.1926C94.7295 15.9335 96.4891 15.3057 98.8329 15.3057C100.968 15.3057 102.625 15.8521 103.797 16.938C104.969 18.0274 105.557 19.4935 105.557 21.3329V23.7289H96.0278C96.2362 24.6113 96.7214 25.2255 97.4901 25.5751C98.2555 25.9213 99.3009 26.0977 100.623 26.0977C101.361 26.0977 102.113 26.0332 102.878 25.9009C103.643 25.7685 104.282 25.6022 104.791 25.3952V28.3546C104.149 28.6566 103.384 28.8772 102.495 29.0163C101.607 29.1589 100.633 29.2267 99.5743 29.2267L99.5708 29.2233ZM96.0244 21.1089H101.583V20.5184C101.583 19.86 101.385 19.3408 100.989 18.9539C100.592 18.5704 99.9193 18.377 98.9764 18.377C97.8796 18.377 97.1143 18.5976 96.6804 19.0388C96.2465 19.48 96.0278 20.1723 96.0278 21.1089H96.0244Z" fill="white"/>
<path id="Vector_8" d="M107.33 28.9418V25.3411H110.955V28.9418H107.33Z" fill="#FF780F"/>
<path id="Vector_9" d="M113.924 28.9417V19.0252H112.137V15.5874H113.924V14.4878C113.924 13.0421 114.341 11.8509 115.171 10.9108C116.001 9.97078 117.241 9.50244 118.888 9.50244C119.568 9.50244 120.173 9.55335 120.702 9.65855C121.232 9.76036 121.734 9.9063 122.206 10.0963V13.1405C121.922 13.0455 121.649 12.9708 121.382 12.9165C121.116 12.8588 120.825 12.8317 120.504 12.8317C119.766 12.8317 119.247 12.9674 118.943 13.2389C118.639 13.5104 118.489 13.9584 118.489 14.5761V15.5908H121.806L121.608 19.0286H118.489V28.9451H113.921L113.924 28.9417Z" fill="white"/>
<path id="Vector_10" d="M123.227 28.9417V15.5873H127.566L127.71 16.8261C128.294 16.4697 129.025 16.1439 129.893 15.8554C130.761 15.5636 131.632 15.3803 132.503 15.3057V18.713C132.011 18.7707 131.468 18.8589 130.874 18.9811C130.279 19.1032 129.712 19.2492 129.172 19.4189C128.632 19.5886 128.175 19.765 127.795 19.9551V28.9417H123.227Z" fill="white"/>
</g>
</g>
<defs>
<clipPath id="clip0_1489_11485">
<rect width="132" height="39.7168" fill="white" transform="translate(0.5)"/>
</clipPath>
</defs>
</svg>
