<?xml version="1.0" encoding="utf-8"?>
<!-- Generator: $$$/GeneralStr/196=Adobe Illustrator 27.6.0, SVG Export Plug-In . SVG Version: 6.00 Build 0)  -->
<svg version="1.1" id="Calque_1" xmlns="http://www.w3.org/2000/svg" xmlns:xlink="http://www.w3.org/1999/xlink" x="0px" y="0px"
	 viewBox="0 0 170.4 52.9" style="enable-background:new 0 0 170.4 52.9;" xml:space="preserve">
<style type="text/css">
	.st0{enable-background:new    ;}
	.st1{fill:#FFFFFF;}
</style>
<g>
	<g class="st0">
		<path class="st1" d="M85.3,26.2c-0.6,1.1-1.5,1.9-2.7,2.6s-2.7,1-4.5,1h-3.3v7.9h-5.4V15.6h8.7c1.8,0,3.3,0.3,4.5,0.9
			c1.2,0.6,2.1,1.5,2.7,2.5c0.6,1.1,0.9,2.3,0.9,3.7C86.2,24,85.9,25.2,85.3,26.2z M80,24.8c0.5-0.5,0.8-1.2,0.8-2s-0.3-1.6-0.8-2.1
			S78.7,20,77.7,20h-2.9v5.6h2.9C78.7,25.5,79.5,25.3,80,24.8z"/>
		<path class="st1" d="M106.4,20.1v17.6H101v-2.4c-0.5,0.8-1.3,1.4-2.2,1.9c-0.9,0.5-2,0.7-3.1,0.7c-1.3,0-2.5-0.3-3.6-0.9
			c-1-0.6-1.8-1.5-2.4-2.6s-0.9-2.5-0.9-4V20.1h5.4v9.6c0,1.2,0.3,2.1,0.9,2.7c0.6,0.7,1.4,1,2.5,1s1.9-0.3,2.5-1s0.9-1.6,0.9-2.7
			v-9.6H106.4z"/>
		<path class="st1" d="M115.3,33.3h7.6v4.4h-13.7v-4.3l7.3-8.9h-7.3v-4.4h13.4v4.3L115.3,33.3z"/>
		<path class="st1" d="M131,33.3h7.6v4.4h-13.7v-4.3l7.3-8.9H125v-4.4h13.4v4.3L131,33.3z"/>
		<path class="st1" d="M147,14.4v23.3h-5.4V14.4H147z"/>
		<path class="st1" d="M167.4,30.2h-12.2c0.1,1.1,0.4,1.9,1.1,2.5c0.6,0.6,1.4,0.9,2.3,0.9c1.3,0,2.3-0.6,2.8-1.7h5.7
			c-0.3,1.2-0.8,2.2-1.6,3.1c-0.8,0.9-1.7,1.7-2.9,2.2s-2.4,0.8-3.9,0.8c-1.7,0-3.3-0.4-4.6-1.1c-1.3-0.7-2.4-1.8-3.2-3.2
			s-1.1-3-1.1-4.8s0.4-3.4,1.1-4.8c0.7-1.4,1.8-2.4,3.1-3.2c1.3-0.7,2.9-1.1,4.6-1.1c1.7,0,3.2,0.4,4.5,1.1s2.4,1.7,3.1,3.1
			c0.7,1.3,1.1,2.9,1.1,4.6C167.5,29.2,167.4,29.7,167.4,30.2z M161.9,27.2c0-0.9-0.3-1.7-0.9-2.2c-0.6-0.5-1.4-0.8-2.4-0.8
			c-0.9,0-1.7,0.3-2.3,0.8s-1,1.3-1.2,2.2H161.9z"/>
	</g>
</g>
<g>
	<path class="st1" d="M61.2,20.1c-0.2-0.1-0.3-0.1-0.4,0c-0.7,0.8-1.3,1.5-1.8,2.1s-1,1.2-1.5,1.8c-0.5,0.6-1,1.1-1.5,1.6
		s-1.1,1.1-1.8,1.7c-0.1-1.2-0.1-2.6-0.1-4c0-1.6,0-3.3-0.3-4.8c-0.3-1.3-1.6,0-2,0.6c-0.7,0.9-1,2-1.3,3.1
		c-0.8,3.1-2.4,5.5-5.2,7.9c-0.3,0.2-0.6,0.4-1,0.5c-1.7,0.3-1.1-2.1-1-2.9c0.5-2.5,1.5-4.8,2.3-7.3c0.1-0.2,0.2-0.5,0.3-0.7
		c0.1-0.4,0-0.7-0.3-0.9c-0.4-0.2-0.8-0.2-1.2,0s-0.7,0.5-1.1,0.8c-0.3,0.3-0.6,0.6-0.9,1c-2.5,3-3.4,8.6-1.6,11.7
		c0.4,0.7,1,1.3,2,1.2c1.6-0.1,3.2-1.7,4.2-2.6c1.1-1,2.1-2.2,3-3.3c0.1,1-0.2,1.9-0.3,2.9c-0.1,0.9-0.5,1.6-1.2,2.2
		c-1.4,1.3-2.6,2.7-3.7,4c-0.6,0.8-1.2,1.5-1.8,2.3c-0.4,0.6-0.8,1.1-1.2,1.7c-0.4,0.6-0.9,0.9-1.6,1.3c-0.3,0.2-0.6,0.3-0.9,0.4
		c-1.5,0.4-2.1-0.4-2.4-1.5c-0.2-0.8-0.3-1.7-0.4-2.7c0-1,0-2.1,0.1-3.2c0.1-1.1,0.2-2.2,0.3-3.1c0.2-1.1,0.4-2.1,0.5-3.2
		c0.2-1.1,0.4-2.1,0.6-3.2c0.1-0.7,0.2-1.5,0.3-2.2s0.2-1.4,0.2-2.2c0-0.6,0-1.1-0.1-1.7s-0.3-1.1-0.7-1.5c-0.4-0.6-1-1.2-1.8-1.3
		c-1-0.1-2.1,0.7-2.8,1.3c-0.9,0.8-1.5,1.9-2.2,2.9c-0.4,0.6-0.8,1.2-1.1,1.9c-0.4,0.7-0.8,1.5-1.3,2.4c-0.1,0.1-0.3,0.1-0.3-0.1
		l0,0c0.1-0.3,0.1-0.5,0.1-0.8c0.2-1.4,0.4-2.8,0.4-4.2c0.1-2,0.4-4-0.6-5.8c-0.3-0.5-0.7-0.7-1.2-0.8s-0.9,0.1-1.4,0.5
		c-0.2,0.2-0.4,0.4-0.6,0.6c-0.2,0.2-0.4,0.4-0.6,0.7c-0.9,1.1-1.7,2.2-2.4,3.4c-0.7,1.1-1.3,2.2-1.8,3.3c-0.2,0.4-0.4,0.9-0.7,1.3
		c-0.2,0.3-0.3,0.6-0.5,0.9l0,0c-0.1,0.1-0.3,0-0.3-0.1c0.1-0.3,0.1-0.6,0.2-0.8c0.2-0.6,0.3-1.1,0.5-1.7c0.3-1.1,0.5-2.2,0.7-3.4
		c0.4-2,0.5-2.6,0.9-4.7c0.1-0.4,0.2-1.7,0.2-2.6c0.1-2.7-0.6-5.9-3.5-7.2c-2.4-1.1-5.2,0.1-7.4,1.4c-2.7,1.5-5.3,3.5-7.3,5.8
		c-5.6,6.3-1,11.2,3.2,16.6c0.5,0.6,1.7,1.1,2.6,0.7c1-0.3,0.9-1.2,0.5-1.8C7,23.5,3,19.9,4.4,15.7c0.7-2.1,2.3-3.8,3.9-5.1
		c1.3-1,2.5-2.1,3.9-2.9c1-0.6,2.8-2.1,4.1-1.3c0.4,0.2,0.7,0.6,0.9,1c0.3,0.7,0.5,1.6,0.5,2.4c0.1,1.5-0.3,3.1-0.6,4.5
		c-0.9,3.8-2,8.7-2.8,13c-0.6,2.9-1.3,4.4-1.7,7.3c-0.4,2.8-0.8,5.6,0.6,7.3c0.2,0.3,0.6,0.4,1.1,0.4c0.4-0.1,0.7-0.3,0.9-0.6
		s0.3-0.6,0.4-1c0.4-1.2,0.8-2.3,1.2-3.5c0.4-1.2,0.8-2.3,1.2-3.5c0.4-1.2,0.8-2.5,1.3-3.8c0.5-1.4,1-2.8,1.5-4.2
		c0.6-1.4,1.2-2.8,1.8-4.1c0.7-1.3,1.4-2.6,2.2-3.7c-0.3,2-0.6,3.9-1.1,5.8c-0.4,1.9-0.8,3.8-1.1,5.8c-0.2,1.1-0.3,2.2-0.3,3.3
		c0,1,0,2.1,0.3,3.1c0.2,0.5,0.4,1,0.7,1.5c0.3,0.5,0.6,0.7,1.1,0.7c0.4,0,0.9-0.2,1.2-0.7c0.1-0.2,0.2-0.3,0.4-0.5
		c0.1-0.2,0.2-0.4,0.3-0.5c0.3-0.6,0.6-1.2,0.9-1.8s0.6-1.2,0.8-1.9c0.4-1,0.8-2.1,1.2-3.3c0.4-1.2,0.8-2.3,1.3-3.5s1-2.3,1.6-3.3
		s1.3-1.9,2.1-2.7c0.1,1.3-0.1,2.5-0.5,3.7s-0.7,2.5-0.9,3.7c-0.4,1.7-0.6,3.6-0.8,5.5c-0.1,2-0.1,3.8,0.1,5.6
		c0.1,0.6,0.2,1.3,0.3,1.9c0.1,0.6,0.3,1.2,0.7,1.7c0.5,1.1,1.4,1.9,2.5,2.4c1.5,0.7,3.1,0.2,4.4-0.7c-0.3,0.8-0.7,1.5-1,2.3
		c-0.3,1-0.4,1.9-0.1,2.8c0.2,0.8,0.7,1.4,1.5,1.7s1.6,0.3,2.5-0.1c1.4-0.6,2.7-1.4,3.8-2.5c1.2-1.1,2.1-2.4,2.9-3.8
		c1-2.1,1.9-4.3,2.6-6.5c0.7-2.2,1.1-4.5,1.2-6.9c0-0.6,0.3-1.2,0.7-1.6c1.1-1,1.9-1.9,2.6-2.7c0.7-0.8,1.3-1.5,1.8-2.2
		s1-1.3,1.4-1.9s0.8-1.3,1.3-2.1C61.5,20.3,61.3,20.2,61.2,20.1z M48.4,38.3c-0.4,1.3-0.8,2.6-1.3,3.9c-0.5,1.3-1.2,2.5-1.9,3.6
		s-1.5,1.9-2.4,2.4c-1,0.4-1.5,0.2-1.7-0.6c-0.1-0.3-0.1-0.6,0-0.8c0.1-0.3,0.2-0.6,0.2-0.9c0.1-0.3,0.2-0.5,0.3-0.8
		c0.2-0.5,0.5-0.9,0.7-1.4c0.2-0.4,0.5-0.9,0.8-1.3c0.3-0.5,0.7-1.1,1.2-1.8s1-1.4,1.6-2.1c0.6-0.7,1.2-1.4,1.7-2
		c0.6-0.6,1.1-1.2,1.6-1.6C49.1,35.8,48.8,37,48.4,38.3z"/>
</g>
</svg>
