<svg width="20" height="21" viewBox="0 0 20 21" fill="none" xmlns="http://www.w3.org/2000/svg">
<g id="Picto made in france">
<g id="Vector">
<path d="M4.10929 14.6315C2.7546 13.2076 1.92767 11.297 1.93614 9.19579C1.95025 5.96994 3.93007 3.20553 6.75657 1.98066C3.02695 2.58463 0.153878 5.69477 0.0085312 9.49495C0.00570893 9.55563 0.0042978 9.61631 0.00288667 9.67699C0.00288667 9.70521 6.43992e-05 9.73343 6.43992e-05 9.76165C6.43992e-05 9.76871 6.43992e-05 9.77577 6.43992e-05 9.78141C6.43992e-05 9.78847 6.43992e-05 9.79552 6.43992e-05 9.80258C-0.0084024 11.9023 0.818522 13.8144 2.17321 15.2383L7.32526 20.8165L8.55295 19.442L4.10929 14.6315Z" fill="#1F71B8"/>
<path d="M11.9538 0.816477C7.49177 0.798133 3.8581 4.32879 3.83976 8.70472C3.83129 10.8045 4.65822 12.7166 6.01291 14.1404L11.8677 20.8179L17.8424 14.1263C19.1731 12.7208 19.9916 10.8412 20.0001 8.77245C20.0184 4.39652 16.4172 0.834822 11.9538 0.816477ZM11.8719 14.3972C8.74627 14.3718 6.23445 11.8671 6.26127 8.80349C6.28808 5.73992 8.84223 3.27749 11.9679 3.30431C15.0921 3.32971 17.6054 5.83447 17.5786 8.89804C17.5517 11.9616 14.9976 14.424 11.8719 14.3986" fill="#E7363A"/>
<path d="M11.9453 5.81754C10.283 5.80342 8.92407 7.11437 8.90996 8.74282C8.89585 10.3727 10.2322 11.7048 11.8945 11.7189C13.5568 11.733 14.9157 10.4221 14.9299 8.79362C14.944 7.16376 13.6076 5.83165 11.9453 5.81754Z" fill="#1F71B8"/>
</g>
</g>
</svg>
