<?xml version="1.0" encoding="utf-8"?>
<!-- Generator: $$$/GeneralStr/196=Adobe Illustrator 27.6.0, SVG Export Plug-In . SVG Version: 6.00 Build 0)  -->
<svg version="1.1" id="Calque_1" xmlns="http://www.w3.org/2000/svg" xmlns:xlink="http://www.w3.org/1999/xlink" x="0px" y="0px"
	 viewBox="0 0 48.2 57.2" style="enable-background:new 0 0 48.2 57.2;" xml:space="preserve">
<style type="text/css">
	.st0{fill:none;stroke:#FFFFFF;stroke-width:2;stroke-linecap:round;stroke-linejoin:round;}
</style>
<g id="three-stars">
	<path id="Path" class="st0" d="M8.3,34.8l2.2-4.7c0.3-0.6,1.1-0.6,1.4,0l2.2,4.7l5,0.8c0.6,0.1,0.9,0.9,0.4,1.4L16,40.6l0.8,5.2
		c0.1,0.7-0.6,1.2-1.1,0.9l-4.4-2.4l-4.4,2.4c-0.6,0.3-1.2-0.2-1.1-0.9l0.8-5.2L3,37c-0.5-0.5-0.2-1.3,0.4-1.4L8.3,34.8z"/>
	<path id="Path_2" class="st0" d="M33.9,34.8l2.2-4.7c0.3-0.6,1.1-0.6,1.4,0l2.2,4.7l5,0.8c0.6,0.1,0.9,0.9,0.4,1.4l-3.6,3.7
		l0.8,5.2c0.1,0.7-0.6,1.2-1.1,0.9l-4.4-2.4l-4.4,2.4c-0.6,0.3-1.2-0.2-1.1-0.9l0.8-5.2L28.5,37c-0.5-0.5-0.2-1.3,0.4-1.4L33.9,34.8
		z"/>
	<path id="Path_3" class="st0" d="M21.1,15.7l2.2-4.7c0.3-0.6,1.1-0.6,1.4,0l2.2,4.7l5,0.8c0.6,0.1,0.9,0.9,0.4,1.4l-3.6,3.7
		l0.8,5.2c0.1,0.7-0.6,1.2-1.1,0.9L24,25l-4.4,2.4c-0.6,0.3-1.2-0.2-1.1-0.9l0.8-5.2l-3.6-3.7c-0.5-0.5-0.2-1.3,0.4-1.4L21.1,15.7z"
		/>
</g>
</svg>
