<?xml version="1.0" encoding="utf-8"?>
<!-- Generator: $$$/GeneralStr/196=Adobe Illustrator 27.6.0, SVG Export Plug-In . SVG Version: 6.00 Build 0)  -->
<svg version="1.1" id="Calque_1" xmlns="http://www.w3.org/2000/svg" xmlns:xlink="http://www.w3.org/1999/xlink" x="0px" y="0px"
	 viewBox="0 0 48.2 57.2" style="enable-background:new 0 0 48.2 57.2;" xml:space="preserve">
<style type="text/css">
	.st0{fill:#FFFFFF;}
</style>
<path class="st0" d="M22.3,31.1V19.4h3.5v11.7H22.3z M24,29.3h11.7v3.5H24V29.3z M22.3,19.4c0-1,0.8-1.7,1.7-1.7
	c1,0,1.7,0.8,1.7,1.7H22.3z M24,31.1v1.7c-1,0-1.7-0.8-1.7-1.7H24z M35.7,29.3c1,0,1.7,0.8,1.7,1.7s-0.8,1.7-1.7,1.7V29.3z"/>
<path class="st0" d="M6.7,7.6l4.7-3.5l2.1,2.8l-4.7,3.5L6.7,7.6z M11.3,4.1c0.8-0.6,1.9-0.4,2.4,0.3c0.6,0.8,0.4,1.9-0.3,2.4
	L11.3,4.1z M8.8,10.4C8,11,6.9,10.8,6.4,10.1S6,8.2,6.7,7.7L8.8,10.4z"/>
<path class="st0" d="M41.4,7.6l-4.7-3.5l-2.1,2.8l4.7,3.5L41.4,7.6z M36.7,4.1c-0.8-0.6-1.9-0.4-2.4,0.3c-0.6,0.8-0.4,1.9,0.3,2.4
	L36.7,4.1z M39.3,10.4c0.8,0.6,1.9,0.4,2.4-0.3c0.6-0.8,0.4-1.9-0.3-2.4L39.3,10.4z"/>
<path class="st0" d="M24,11.9c10.6,0,19.2,8.6,19.2,19.2h3.5C46.7,18.6,36.5,8.4,24,8.4C24,8.4,24,11.9,24,11.9z M4.8,31.1
	c0-10.6,8.6-19.2,19.2-19.2V8.4C11.5,8.4,1.3,18.6,1.3,31.1H4.8z M24,50.3c-10.6,0-19.2-8.6-19.2-19.2H1.3
	c0,12.5,10.2,22.7,22.7,22.7V50.3z M43.2,31.1c0,10.6-8.6,19.2-19.2,19.2v3.5c12.5,0,22.7-10.2,22.7-22.7H43.2z"/>
</svg>
