<?xml version="1.0" encoding="UTF-8"?>
<svg id="Objects" xmlns="http://www.w3.org/2000/svg" version="1.1" viewBox="0 0 1552.8 1552.8">
  <!-- Generator: Adobe Illustrator 29.3.1, SVG Export Plug-In . SVG Version: 2.1.0 Build 151)  -->
  <defs>
    <style>
      .st0 {
        fill: #878585;
      }
    </style>
  </defs>
  <g>
    <path class="st0" d="M814.2,465.1c-6.5-6.5-15.2-10.1-24.4-10.1s-17.9,3.6-24.4,10.1l-106.6,106.6c-13.5,13.5-13.5,35.3,0,48.8s35.3,13.5,48.8,0l47.7-47.7v341.9c0,19.1,15.4,34.5,34.5,34.5s34.5-15.4,34.5-34.5v-341.9l47.7,47.7c13.5,13.5,35.3,13.5,48.8,0s13.5-35.3,0-48.8l-106.6-106.6Z"/>
    <path class="st0" d="M590.9,1073.6h397.8c19.1,0,34.5-15.4,34.5-34.5v-124.4c0-19.1-15.4-34.5-34.5-34.5s-34.5,15.4-34.5,34.5v89.9h-328.8v-89.9c0-19.1-15.4-34.5-34.5-34.5s-34.5,15.4-34.5,34.5v124.4c0,19.1,15.4,34.5,34.5,34.5Z"/>
  </g>
  <path class="st0" d="M772.8,1526.4c-100.7,0-198.4-19.7-290.4-58.6-88.8-37.6-168.6-91.4-237.1-159.9s-122.3-148.3-159.9-237.1c-38.9-92-58.6-189.7-58.6-290.4s19.7-198.4,58.6-290.4c37.6-88.8,91.4-168.6,159.9-237.1s148.3-122.3,237.1-159.9c92-38.9,189.7-58.6,290.4-58.6s198.4,19.7,290.4,58.6c88.8,37.6,168.6,91.4,237.1,159.9s122.3,148.3,159.9,237.1c38.9,92,58.6,189.7,58.6,290.4s-19.7,198.4-58.6,290.4c-37.6,88.8-91.4,168.6-159.9,237.1s-148.3,122.3-237.1,159.9c-92,38.9-189.7,58.6-290.4,58.6h0ZM772.8,64.4C378,64.4,56.8,385.6,56.8,780.4s321.2,716,716,716,716-321.2,716-716S1167.6,64.4,772.8,64.4Z"/>
</svg>