<?xml version="1.0" encoding="utf-8"?>
<!-- Generator: $$$/GeneralStr/196=Adobe Illustrator 27.6.0, SVG Export Plug-In . SVG Version: 6.00 Build 0)  -->
<svg version="1.1" id="Calque_1" xmlns="http://www.w3.org/2000/svg" xmlns:xlink="http://www.w3.org/1999/xlink" x="0px" y="0px"
	 viewBox="0 0 24 24" style="enable-background:new 0 0 24 24;" xml:space="preserve">
<style type="text/css">
	.st0{fill:none;stroke:#FF9636;stroke-width:1.5;stroke-linecap:round;}
</style>
<g id="peace-hand">
	<path id="Vector_32" class="st0" d="M14.1,8.5V2.6c0-0.9-0.7-1.6-1.6-1.6l0,0c-0.9,0-1.6,0.7-1.6,1.6v4.8"/>
	<path id="Vector_36" class="st0" d="M16.3,11.8l2.2-7.3c0.3-0.8-0.2-1.7-1.1-2l0,0c-0.8-0.2-1.7,0.3-2,1.1l-1.3,4.8"/>
	<path id="Vector_34" class="st0" d="M7.6,8.2l1.1,2.3c0.4,0.8,0,1.8-0.8,2.1c-0.8,0.4-1.8,0-2.1-0.8L4.7,9.6
		c-0.4-0.8,0-1.8,0.8-2.1C6.3,7.1,7.3,7.4,7.6,8.2z"/>
	<path id="Vector_35" class="st0" d="M11.7,11.3L11.7,11.3c0.2-0.6,0.2-1.2-0.1-1.7l-1.1-2.4C10.2,6.3,9.3,6,8.5,6.3l0,0
		C7.7,6.7,7.3,7.7,7.7,8.5l0.1,0.3"/>
	<path id="Vector_33" class="st0" d="M13.9,16.7l0.5-1c0-0.1,0-0.2-0.1-0.2l-3.6-1c-0.7-0.2-1.2-0.9-1.1-1.6l0,0
		c0.1-0.8,0.8-1.4,1.7-1.4l4.8,0.4c0,0,3.8,0.6,2.5,4.4c-1.3,3.8-1.8,5.1-4.7,5.1c-1.9,0-4.7,0-4.7,0H8.9c-2.3,0-4.2-1.9-4.2-4.2
		l0,0L4.5,8.9"/>
</g>
</svg>
