<?xml version="1.0" encoding="utf-8"?>
<!-- Generator: $$$/GeneralStr/196=Adobe Illustrator 27.6.0, SVG Export Plug-In . SVG Version: 6.00 Build 0)  -->
<svg version="1.1" id="Calque_1" xmlns="http://www.w3.org/2000/svg" xmlns:xlink="http://www.w3.org/1999/xlink" x="0px" y="0px"
	 viewBox="0 0 168 160" style="enable-background:new 0 0 168 160;" xml:space="preserve">
<style type="text/css">
	.st0{fill:#4570B3;}
	.st1{fill:#C7393D;}
</style>
<path class="st0" d="M41.6,106.6C31.9,96.5,26,83,26.1,68.1C26.2,45.2,40.3,25.6,60.4,17c-26.5,4.3-47,26.3-48,53.2
	c0,0.4,0,0.9,0,1.3c0,0.2,0,0.4,0,0.6c0,0,0,0.1,0,0.1c0,0,0,0.1,0,0.1c-0.1,14.9,5.8,28.4,15.5,38.5l36.7,39.5l8.7-9.7L41.6,106.6z
	"/>
<path class="st1" d="M97.4,8.7C65.6,8.6,39.8,33.6,39.6,64.6c-0.1,14.9,5.8,28.4,15.5,38.5l41.6,47.3l42.5-47.4
	c9.5-10,15.3-23.3,15.3-37.9C154.7,34.1,129.1,8.8,97.4,8.7 M96.8,104.9C74.6,104.8,56.7,87,56.9,65.3c0.2-21.7,18.4-39.2,40.6-39
	c22.2,0.2,40.1,17.9,39.9,39.6C137.2,87.7,119,105.1,96.8,104.9"/>
<path class="st0" d="M97.3,44.1C85.5,44,75.8,53.3,75.7,64.9c-0.1,11.5,9.4,21,21.2,21.1c11.8,0.1,21.5-9.2,21.6-20.7
	C118.6,53.7,109.1,44.2,97.3,44.1"/>
</svg>
