<svg width="24" height="25" viewBox="0 0 24 25" fill="none" xmlns="http://www.w3.org/2000/svg">
<g id="Picto made in france">
<g id="Vector">
<path d="M4.93108 17.078C3.30546 15.3694 2.31315 13.0766 2.32331 10.5551C2.34024 6.68412 4.71603 3.36682 8.10783 1.89699C3.63228 2.62174 0.184593 6.35391 0.0101764 10.9141C0.00678969 10.9869 0.00509633 11.0598 0.00340297 11.1326C0.00340297 11.1664 1.62439e-05 11.2003 1.62439e-05 11.2342C1.62439e-05 11.2426 1.62439e-05 11.2511 1.62439e-05 11.2579C1.62439e-05 11.2663 1.62439e-05 11.2748 1.62439e-05 11.2833C-0.0101439 13.803 0.982165 16.0975 2.60779 17.8061L8.79025 24.5L10.2635 22.8506L4.93108 17.078Z" fill="#1F71B8"/>
<path d="M14.3445 0.499963C8.99007 0.47795 4.62966 4.71474 4.60765 9.96585C4.59749 12.4856 5.5898 14.7801 7.21543 16.4887L14.2412 24.5017L21.4109 16.4717C23.0077 14.7852 23.9899 12.5296 24 10.0471C24.022 4.79602 19.7006 0.521977 14.3445 0.499963ZM14.2463 16.7969C10.4955 16.7664 7.48128 13.7607 7.51346 10.0844C7.54563 6.4081 10.6106 3.45318 14.3614 3.48536C18.1105 3.51584 21.1264 6.52155 21.0942 10.1978C21.062 13.8741 17.9971 16.829 14.2463 16.7986" fill="#E7363A"/>
<path d="M14.3343 6.50123C12.3395 6.4843 10.7088 8.05743 10.6919 10.0116C10.675 11.9674 12.2786 13.5659 14.2734 13.5829C16.2681 13.5998 17.8988 12.0267 17.9158 10.0725C17.9327 8.1167 16.3291 6.51817 14.3343 6.50123Z" fill="#1F71B8"/>
</g>
</g>
</svg>
