<?xml version="1.0" encoding="utf-8"?>
<!-- Generator: $$$/GeneralStr/196=Adobe Illustrator 27.6.0, SVG Export Plug-In . SVG Version: 6.00 Build 0)  -->
<svg version="1.1" id="Calque_1" xmlns="http://www.w3.org/2000/svg" xmlns:xlink="http://www.w3.org/1999/xlink" x="0px" y="0px"
	 viewBox="0 0 24 24" style="enable-background:new 0 0 24 24;" xml:space="preserve">
<style type="text/css">
	.st0{fill:none;stroke:#FF9636;stroke-width:1.5;stroke-linecap:round;stroke-linejoin:round;}
	.st1{fill:#FF9636;stroke:#FF9636;stroke-width:1.5;stroke-linecap:round;stroke-linejoin:round;}
	.st2{fill:none;stroke:#FF9636;stroke-width:1.5;stroke-linejoin:round;}
</style>
<g id="piggy-bank">
	<path id="Vector" class="st0" d="M14.5,8.5C13.7,8.3,12.6,8,11.8,8C7.5,8,4,10.7,4,14c0,1.9,1.1,3.6,2.9,4.7l-0.5,1.6
		C6.3,20.6,6.6,21,7,21h1.8c0.1,0,0.3,0,0.4-0.1l1.4-1H13l1.4,1c0.1,0.1,0.2,0.1,0.4,0.1h1.8c0.4,0,0.7-0.4,0.6-0.8l-0.5-1.6
		c1.1-0.7,1.9-1.5,2.4-2.5"/>
	<path id="Vector_2" class="st0" d="M14.5,8.5L19,7l-0.1,3.6l2.1,0.9V15l-1.9,1"/>
	<path id="Vector_3" class="st1" d="M15.5,13c-0.3,0-0.5-0.2-0.5-0.5s0.2-0.5,0.5-0.5s0.5,0.2,0.5,0.5S15.8,13,15.5,13z"/>
	<path id="Vector_4" class="st0" d="M2,10c0,0,0,2.4,2,3"/>
	<path id="Vector_5" class="st2" d="M12.8,7.8C12.9,7.4,13,7,13,6.6c0-2-1.6-3.6-3.5-3.6S6,4.6,6,6.6C6,7.5,6.4,8.4,6.9,9"/>
</g>
</svg>
