<svg width="33" height="33" viewBox="0 0 33 33" fill="none" xmlns="http://www.w3.org/2000/svg">
<g id="piggy-bank">
<path id="Vector" d="M20.1904 11.8337C19.1495 11.5638 17.7029 11.167 16.5433 11.167C10.8256 11.167 6.19043 14.7238 6.19043 19.1114C6.19043 21.6327 7.72102 23.8797 10.1081 25.3351L9.46133 27.4682C9.30556 27.982 9.69005 28.5003 10.2269 28.5003H12.5791C12.7522 28.5003 12.9207 28.4441 13.0592 28.3402L14.9187 26.9448H18.1679L20.0274 28.3402C20.1659 28.4441 20.3344 28.5003 20.5076 28.5003H22.8597C23.3966 28.5003 23.7811 27.982 23.6253 27.4682L22.9785 25.3351C24.4007 24.468 25.5188 23.32 26.1904 22.0003" stroke="#FF780F" stroke-width="1.5" stroke-linecap="round" stroke-linejoin="round"/>
<path id="Vector_2" d="M20.1904 11.833L26.1904 9.83301L26.0784 14.6707L28.8571 15.833V20.4997L26.2892 21.833" stroke="#FF780F" stroke-width="1.5" stroke-linecap="round" stroke-linejoin="round"/>
<path id="Vector_3" d="M21.5238 17.8333C21.1556 17.8333 20.8571 17.5349 20.8571 17.1667C20.8571 16.7985 21.1556 16.5 21.5238 16.5C21.892 16.5 22.1904 16.7985 22.1904 17.1667C22.1904 17.5349 21.892 17.8333 21.5238 17.8333Z" fill="#FF780F" stroke="#FF780F" stroke-width="1.5" stroke-linecap="round" stroke-linejoin="round"/>
<path id="Vector_4" d="M3.52344 13.833C3.52344 13.833 3.52344 17.033 6.1901 17.833" stroke="#FF780F" stroke-width="1.5" stroke-linecap="round" stroke-linejoin="round"/>
<path id="Vector_5" d="M17.9247 10.8373C18.0967 10.3417 18.1903 9.80848 18.1903 9.25296C18.1903 6.62797 16.1009 4.5 13.5236 4.5C10.9463 4.5 8.85693 6.62797 8.85693 9.25296C8.85693 10.5085 9.33492 11.6503 10.1157 12.5" stroke="#FF780F" stroke-width="1.5" stroke-linejoin="round"/>
</g>
</svg>
