<svg width="14" height="15" viewBox="0 0 14 15" fill="none" xmlns="http://www.w3.org/2000/svg">
<g id="pin-alt">
<path id="Ellipse" d="M11.6668 6.33329C11.6668 8.40416 8.65402 11.6664 7.46995 12.8685C7.2089 13.1335 6.79143 13.1335 6.53038 12.8685C5.34631 11.6664 2.3335 8.40416 2.3335 6.33329C2.3335 3.75596 4.42283 1.66663 7.00016 1.66663C9.57749 1.66663 11.6668 3.75596 11.6668 6.33329Z" stroke="#FF780F"/>
<path id="Vector" d="M6.99984 6.91667C7.322 6.91667 7.58317 6.6555 7.58317 6.33333C7.58317 6.01117 7.322 5.75 6.99984 5.75C6.67767 5.75 6.4165 6.01117 6.4165 6.33333C6.4165 6.6555 6.67767 6.91667 6.99984 6.91667Z" fill="#FF780F" stroke="#FF780F" stroke-linecap="round" stroke-linejoin="round"/>
</g>
</svg>
