<svg width="24" height="24" viewBox="0 0 24 24" fill="none" xmlns="http://www.w3.org/2000/svg">
<g id="thumbs-up">
<path id="Vector" d="M17.2362 20H3.8C3.63431 20 3.5 19.8657 3.5 19.7V9.3C3.5 9.13431 3.63431 9 3.8 9H7.43381C7.78507 9 8.11058 8.8157 8.2913 8.5145L11.7601 2.73323C12.1186 2.13566 12.9631 2.07886 13.3984 2.62303L14.1723 3.59039C14.3775 3.84689 14.4437 4.18781 14.3493 4.50243L13.1159 8.6138C13.0581 8.80628 13.2023 9 13.4032 9H19.6908C20.3501 9 20.829 9.62698 20.6555 10.2631L18.201 19.2631C18.0823 19.6982 17.6872 20 17.2362 20Z" stroke="white" stroke-width="1.5" stroke-linecap="round"/>
<path id="Vector_2" d="M7 20V9" stroke="white" stroke-width="1.5" stroke-linecap="round" stroke-linejoin="round"/>
</g>
</svg>
