<?xml version="1.0" encoding="utf-8"?>
<!-- Generator: $$$/GeneralStr/196=Adobe Illustrator 27.6.0, SVG Export Plug-In . SVG Version: 6.00 Build 0)  -->
<svg version="1.1" id="Calque_1" xmlns="http://www.w3.org/2000/svg" xmlns:xlink="http://www.w3.org/1999/xlink" x="0px" y="0px"
	 viewBox="0 0 48.2 57.2" style="enable-background:new 0 0 48.2 57.2;" xml:space="preserve">
<style type="text/css">
	.st0{fill:none;stroke:#FFFFFF;stroke-width:3;stroke-linecap:round;stroke-linejoin:round;}
	.st1{fill:#FF9636;stroke:#FFFFFF;stroke-width:3;stroke-linecap:round;stroke-linejoin:round;}
	.st2{fill:none;stroke:#FFFFFF;stroke-width:3;stroke-linejoin:round;}
</style>
<g id="piggy-bank">
	<path id="Vector" class="st0" d="M31.6,20.6c-1.9-0.5-4.4-1.2-6.3-1.2c-10,0-18.2,6.3-18.2,14c0,4.4,2.6,8.4,6.8,11l-1.2,3.7
		c-0.2,0.7,0.5,1.6,1.4,1.6h4.2c0.2,0,0.7,0,0.9-0.2l3.3-2.3h5.6l3.3,2.3c0.2,0.2,0.5,0.2,0.9,0.2h4.2c0.9,0,1.6-0.9,1.4-1.9
		l-1.2-3.7c2.6-1.6,4.4-3.5,5.6-5.8"/>
	<path id="Vector_2" class="st0" d="M31.6,20.6l10.5-3.5l-0.2,8.4l4.9,2.1v8.2l-4.4,2.3"/>
	<path id="Vector_3" class="st1" d="M33.9,31.1c-0.7,0-1.2-0.5-1.2-1.2s0.5-1.2,1.2-1.2c0.7,0,1.2,0.5,1.2,1.2S34.6,31.1,33.9,31.1z
		"/>
	<path id="Vector_4" class="st0" d="M2.4,24.1c0,0,0,5.6,4.7,7"/>
	<path id="Vector_5" class="st2" d="M27.6,19c0.2-0.9,0.5-1.9,0.5-2.8c0-4.7-3.7-8.4-8.2-8.4s-8.2,3.7-8.2,8.4
		c0,2.1,0.9,4.2,2.1,5.6"/>
</g>
</svg>
