<svg width="33" height="33" viewBox="0 0 33 33" fill="none" xmlns="http://www.w3.org/2000/svg">
<g id="puzzle">
<path id="Vector" d="M5.47607 19.1663V25.233C5.47607 25.5644 5.7447 25.833 6.07607 25.833H13.4761" stroke="white" stroke-width="1.5" stroke-linecap="round" stroke-linejoin="round"/>
<path id="Vector_2" d="M25.4758 19.1663V25.233C25.4758 25.5644 25.2071 25.833 24.8758 25.833H18.8091" stroke="white" stroke-width="1.5" stroke-linecap="round" stroke-linejoin="round"/>
<path id="Vector_3" d="M18.8091 7.16634H24.8758C25.2071 7.16634 25.4758 7.43497 25.4758 7.76634V13.833" stroke="white" stroke-width="1.5" stroke-linecap="round" stroke-linejoin="round"/>
<path id="Vector_4" d="M5.47607 13.833V7.76634C5.47607 7.43497 5.7447 7.16634 6.07607 7.16634H13.4761" stroke="white" stroke-width="1.5" stroke-linecap="round" stroke-linejoin="round"/>
<path id="Vector_5" d="M18.8094 25.833V27.1663C18.8094 28.6391 17.6155 29.833 16.1427 29.833C14.67 29.833 13.4761 28.6391 13.4761 27.1663V25.833" stroke="white" stroke-width="1.5" stroke-linecap="round" stroke-linejoin="round"/>
<path id="Vector_6" d="M5.47607 13.833H6.80941C8.28217 13.833 9.47607 15.0269 9.47607 16.4997C9.47607 17.9724 8.28217 19.1663 6.80941 19.1663H5.47607" stroke="white" stroke-width="1.5" stroke-linecap="round" stroke-linejoin="round"/>
<path id="Vector_7" d="M25.4761 13.833H26.8094C28.2822 13.833 29.4761 15.0269 29.4761 16.4997C29.4761 17.9724 28.2822 19.1663 26.8094 19.1663H25.4761" stroke="white" stroke-width="1.5" stroke-linecap="round" stroke-linejoin="round"/>
<path id="Vector_8" d="M18.8094 7.16699V5.83366C18.8094 4.3609 17.6155 3.16699 16.1427 3.16699C14.67 3.16699 13.4761 4.3609 13.4761 5.83366V7.16699" stroke="white" stroke-width="1.5" stroke-linecap="round" stroke-linejoin="round"/>
</g>
</svg>
