<?xml version="1.0" encoding="UTF-8"?>
<svg xmlns="http://www.w3.org/2000/svg" version="1.1" viewBox="0 0 110 109">
  <defs>
    <style>
      .cls-1 {
        fill: none;
        stroke: #ff780f;
        stroke-dasharray: 3 2;
        stroke-linejoin: round;
        stroke-width: 2px;
      }
    </style>
  </defs>
  <!-- Generator: Adobe Illustrator 28.7.0, SVG Export Plug-In . SVG Version: 1.2.0 Build 136)  -->
  <g>
    <g id="Calque_1">
      <path id="Vector" class="cls-1" d="M2.1,54.6c6.5,6.6,13.1,12.8,19.2,19.8,2.3,2.6,3,5.7-1.2,6.4-3.3.6-7.2,1.2-9.6,3.8-7.2,7.6,4.9,22.3,13.7,16.9,3.1-2,4-5.5,4.4-8.9.2-2.1.7-4.9,3.2-5.4,2.6-.6,4.6,1.9,6.2,3.5,3.6,3.6,11.5,11.6,15.3,15.6,1.2,1.3,3.3,1.3,4.5,0,5.4-5.4,18.5-18.7,18.6-18.7.9-.9.8-3,.1-3.9-.9-1.1-2.5-1.4-3.8-1.6-1.8-.3-3.7-.6-5.2-1.6-6.1-3.7-5.9-14.3-.2-18.2,4-2.7,8.9-2.1,12.1,1.4,1.6,1.7,2.2,3.9,2.5,6.1.3,1.9.3,5.7,3,5.8,3.2.2,3.8-.3,5.8-2.1,1.5-1.4,12.1-12,16.9-16.8,1.3-1.3,1.2-3.3,0-4.5l-19.2-18.5c-.7-.7-1.6-1-2.6-.9-.9.1-2,.8-2.3,2.9-.4,3.6-.3,7-3.2,9.6-3.5,3.2-8.9,3.3-12.9.9-4.1-2.6-7-8.3-4.9-13.1,1.8-4.2,7-5.7,11.2-5.7,2.6,0,6.1-3,2.4-6.7-2.8-2.8-13.2-13.3-17.9-18-1.3-1.3-3.3-1.3-4.5,0-5.2,5.3-17.5,17.7-18.7,18.4-5.8,3.2-6.4-6.2-8.3-9.2-1.9-3-5-5.3-8.6-5.1-5.4.4-10.7,5-11,10.6-.3,6.1,5.4,10,11.1,10.3.9,0,3.8-.4,4.5.4,2.2,2.3,1.5,4.2-.6,6.4-3.8,4-20,20.2-20,20.2Z"/>
    </g>
  </g>
</svg>