<svg width="33" height="33" viewBox="0 0 33 33" fill="none" xmlns="http://www.w3.org/2000/svg">
<g id="rocket">
<path id="Vector" d="M22.2282 13.1962L19.1668 22.9926L13.8335 22.9926L10.7721 13.1962C10.1844 11.3153 10.5577 9.26564 11.7709 7.71273L16.0273 2.26444C16.2676 1.95696 16.7328 1.95696 16.973 2.26444L21.2294 7.71273C22.4427 9.26564 22.816 11.3153 22.2282 13.1962Z" stroke="white" stroke-width="2" stroke-linecap="round" stroke-linejoin="round"/>
<path id="Vector_2" d="M13.8332 26.9926C13.8332 29.6593 16.4998 30.9926 16.4998 30.9926C16.4998 30.9926 19.1665 29.6593 19.1665 26.9926" stroke="#9E360E" stroke-width="2" stroke-linecap="round" stroke-linejoin="round"/>
<path id="Vector_3" d="M11.8335 16.9926C7.16683 20.3259 9.8335 25.6592 9.8335 25.6592L13.8335 22.9926" stroke="white" stroke-width="2" stroke-linecap="round" stroke-linejoin="round"/>
<path id="Vector_4" d="M21.7417 16.9926C26.4084 20.3259 23.7417 25.6592 23.7417 25.6592L19.7417 22.9926" stroke="white" stroke-width="2" stroke-linecap="round" stroke-linejoin="round"/>
<path id="Vector_5" d="M16.4998 14.9926C15.0271 14.9926 13.8332 13.7987 13.8332 12.3259C13.8332 10.8531 15.0271 9.65924 16.4998 9.65924C17.9726 9.65924 19.1665 10.8531 19.1665 12.3259C19.1665 13.7987 17.9726 14.9926 16.4998 14.9926Z" stroke="white" stroke-width="2" stroke-linecap="round" stroke-linejoin="round"/>
</g>
</svg>
