<svg width="32" height="33" viewBox="0 0 32 33" fill="none" xmlns="http://www.w3.org/2000/svg">
<g id="settings">
<path id="Vector" d="M16 20.5C18.2091 20.5 20 18.7091 20 16.5C20 14.2909 18.2091 12.5 16 12.5C13.7909 12.5 12 14.2909 12 16.5C12 18.7091 13.7909 20.5 16 20.5Z" stroke="white" stroke-width="1.5" stroke-linecap="round" stroke-linejoin="round"/>
<path id="Path" d="M26.163 14.3609L24.6995 10.8267L26.6665 8.50033L23.9998 5.83366L21.6861 7.81093L18.0769 6.32664L17.2469 3.16699H14.6411L13.7986 6.36849L10.2724 7.85494L7.99984 5.83366L5.33317 8.50033L7.27099 10.8855L5.82984 14.4288L2.6665 15.167V17.8337L5.86799 18.7077L7.35417 22.2333L5.33317 24.5003L7.99984 27.167L10.3881 25.2207L13.8625 26.6501L14.6665 29.8337H17.3332L18.1392 26.6512L21.6733 25.1877C22.2623 25.6087 23.9998 27.167 23.9998 27.167L26.6665 24.5003L24.6877 22.1662L26.1517 18.631L29.333 17.8032L29.3332 15.167L26.163 14.3609Z" stroke="white" stroke-width="1.5" stroke-linecap="round" stroke-linejoin="round"/>
</g>
</svg>
