<?xml version="1.0" encoding="utf-8"?>
<!-- Generator: $$$/GeneralStr/196=Adobe Illustrator 27.6.0, SVG Export Plug-In . SVG Version: 6.00 Build 0)  -->
<svg version="1.1" id="Calque_1" xmlns="http://www.w3.org/2000/svg" xmlns:xlink="http://www.w3.org/1999/xlink" x="0px" y="0px"
	 viewBox="0 0 48.2 57.2" style="enable-background:new 0 0 48.2 57.2;" xml:space="preserve">
<style type="text/css">
	.st0{fill:none;stroke:#FFFFFF;stroke-width:3;stroke-linecap:round;stroke-linejoin:round;}
	.st1{stroke:#FFFFFF;stroke-width:3;stroke-linecap:round;stroke-linejoin:round;}
</style>
<g id="emoji">
	<path id="Vector_00000021094359817778491740000013529282772742146957_" class="st0" d="M23.9,50.9c-11.7,0-21.2-9.5-21.2-21.2
		c0-11.7,9.5-21.2,21.2-21.2c11.7,0,21.2,9.5,21.2,21.2C45.2,41.4,35.7,50.9,23.9,50.9z"/>
	<path id="Vector_2_00000054946167815702569980000007621760692716479104_" class="st0" d="M33.5,34.9c0,0-3.2,4.2-9.6,4.2
		s-9.6-4.2-9.6-4.2"/>
	<path id="Vector_3_00000060013940415797371650000002590495498497902988_" class="st1" d="M31.4,23.3c-0.6,0-1.1-0.5-1.1-1.1
		s0.5-1.1,1.1-1.1s1.1,0.5,1.1,1.1S32,23.3,31.4,23.3z"/>
	<path id="Vector_4_00000059288070710488424640000009306661862641737618_" class="st1" d="M16.5,23.3c-0.6,0-1.1-0.5-1.1-1.1
		s0.5-1.1,1.1-1.1c0.6,0,1.1,0.5,1.1,1.1S17.1,23.3,16.5,23.3z"/>
</g>
</svg>
