<svg width="33" height="32" viewBox="0 0 33 32" fill="none" xmlns="http://www.w3.org/2000/svg">
<g id="user-star">
<path id="Vector" d="M16.1654 16C19.1109 16 21.4987 13.6122 21.4987 10.6666C21.4987 7.72113 19.1109 5.33331 16.1654 5.33331C13.2198 5.33331 10.832 7.72113 10.832 10.6666C10.832 13.6122 13.2198 16 16.1654 16Z" stroke="white" stroke-width="2" stroke-linecap="round" stroke-linejoin="round"/>
<path id="Vector_2" d="M6.83203 26.6667V25.3333C6.83203 20.1787 11.0107 16 16.1654 16C17.5968 16 18.953 16.3223 20.1654 16.8982" stroke="white" stroke-width="2" stroke-linecap="round" stroke-linejoin="round"/>
<path id="Path" d="M22.3453 21.8869L23.7306 18.9495C23.9085 18.5724 24.4222 18.5724 24.6001 18.9495L25.9854 21.8869L29.0835 22.3608C29.481 22.4216 29.6394 22.933 29.3516 23.2264L27.1103 25.5112L27.6393 28.7391C27.7072 29.1536 27.2914 29.4697 26.9358 29.2739L24.1654 27.7491L21.3949 29.2739C21.0393 29.4697 20.6235 29.1536 20.6915 28.7391L21.2204 25.5112L18.9791 23.2264C18.6913 22.933 18.8497 22.4216 19.2472 22.3608L22.3453 21.8869Z" stroke="#9E360E" stroke-width="2" stroke-linecap="round" stroke-linejoin="round"/>
</g>
</svg>
